<svg xmlns="http://www.w3.org/2000/svg" viewBox="0 0 600 600" class="lg-icon" fill='#ecabde'>
                <path class="s-h8 ad1 adu1" d="M483.24 143.542v17.632H452.7zM269.46 90.646v17.632h-30.54zM177.84 178.807l30.54-17.632v35.264zM86.22 196.439v17.632H55.68zM452.7 90.646l30.54-17.633v17.633"></path>
                <path class="s-h9 ad2 adu2" d="M452.7 90.646V73.013h30.54L452.7 90.646"></path>
                <path class="s-h7 ad3 adu3" d="M544.32 249.335h30.54v-17.632l-30.54 17.632zm-61.08-35.264H452.7v17.632l30.54-17.632v35.265l30.54-17.633-30.54-17.632zm30.54 0v17.632l30.54-17.632h-30.54zm-30.54-35.265L452.7 196.44h30.54v-17.633zm-61.08-35.264l30.54-17.633-30.54-17.632v35.265zm61.08-35.265H452.7v17.633l30.54 17.632v-35.265zm-91.62 88.162h30.54v-17.632l-30.54 17.632zm61.08 0v-35.264l30.54-17.633H452.7v17.632l-30.54 17.633 30.54 17.632-30.54 17.632h30.54v-17.632zM300 73.014l-30.54 17.632L300 108.278V73.013zm0 70.529v-35.265l-30.54 17.633L300 143.543zm61.08 17.632v-17.633h30.54V125.91l-30.54 17.632v-35.264l-30.54-17.632L300 108.278l30.54 17.633V108.278h30.54l-30.54 17.632 30.54 17.632-30.54 17.633h30.54zm-183.24 17.632l-30.54 17.632h30.54v-17.632zm61.08-35.265v-35.264l-30.54 17.633 30.54 17.632-30.54 17.631v35.265l30.54-17.633-30.54-17.631h30.54v-17.632h30.54V125.91l-30.54 17.632zm-61.08 0h30.54V125.91l-30.54 17.632zM55.68 249.335h30.54v-17.631l-30.54 17.631zm61.08.001v-35.265l-30.54 17.633 30.54 17.632zm0-70.529l-30.54 17.632 30.54 17.632v-35.264zm30.54-17.632l-30.54 17.632 30.54 17.632-30.54 17.632 30.54 17.633V214.07h30.54L147.3 196.44v-35.264zm122.16 0h-30.54v17.632l30.54-17.632zM55.68 249.336v-35.265l-30.54 17.633 30.54 17.632zm0 17.632v-17.632l-30.54 17.632h30.54zm335.94-105.794l-30.54 17.633h30.54v-17.633zm91.62-88.16V37.748L452.7 55.38l30.54 17.632zm-61.08 0v17.632h30.54l-30.54-17.633zm0-35.265v35.264l30.54-17.632-30.54-17.632z"></path>
                <path class="s-h9 ad4 adu4" d="M483.24 284.6l-30.54 17.632v-35.265zM452.7 302.232h30.54v17.632zM391.62 231.703v17.632h-30.54z"></path>
                <path class="s-h9 ad5 adu1" d="M330.54 231.704l30.54-17.633v35.265zM330.54 249.335v17.633L300 249.335zM300 284.6l30.54-17.632v35.264z"></path>
                <path class="s-h8 ad4 adu1" d="M300 249.335v17.633h-30.54z"></path>
                <path class="s-h9 ad1 adu2" d="M300 284.6v17.632h-30.54zM422.16 284.6l30.54-17.632v35.264zM422.16 284.6v17.632h-30.54zM361.08 284.6l30.54 17.632v-35.265zM361.08 284.6v-17.632h-30.54z"></path>
                <path class="s-h9 ad2 adu3" d="M391.62 266.968l-30.54-17.633v17.633z"></path>
                <path class="s-h9 ad3 adu1" d="M269.46 231.703L300 214.071v35.264zM269.46 231.703l-30.54 17.632v-35.264zM269.46 266.968v-17.633H300z"></path>
                <path class="s-h9 ad4 adu4" d="M483.24 496.185v17.633H452.7zM422.16 496.186l-30.54 17.632v-35.264z"></path>
                <path class="s-h9 ad1 adu4" d="M422.16 496.186l30.54-17.632v35.264zM422.16 460.921v17.633h-30.54z"></path>
                <path class="s-h9 ad5 adu3" d="M361.08 496.186v-17.632h30.54z"></path>
                <path class="s-h8 ad2 adu1" d="M422.16 390.393l30.54-17.632v35.264z"></path>
                <path class="s-h9 ad3 adu2" d="M422.16 390.393v17.632h-30.54zM452.7 337.496v17.632h-30.54zM361.08 390.393l30.54-17.632v35.264zM361.08 390.393v17.632h-30.54zM391.62 337.496l-30.54 17.633v-35.265z"></path>
                <path class="s-h9 ad1 adu1" d="M391.62 337.497l30.54-17.633v35.265zM391.62 302.232v17.632h-30.54zM452.7 443.29v17.631h-30.54z"></path>
                <path class="s-h9 ad5 adu4" d="M330.54 337.496L300 355.128v-35.264zM330.54 337.497v-17.633h30.54z"></path>
                <path class="s-h9 ad4 adu1" d="M391.62 443.289l30.54 17.633v-35.265zM391.62 443.29v-17.633h-30.54z"></path>
                <path class="s-h9 ad3 adu3" d="M483.24 390.392l-30.54 17.633V372.76z"></path>
                <path class="s-h8 ad5 adu2" d="M452.7 408.025h30.54v17.632z"></path>
                <path class="s-h9 ad2 adu3" d="M452.7 372.76l30.54-17.632v17.632z"></path>
                <path class="s-h9 adu1" d="M300 390.393l30.54-17.633v35.265z"></path>
                <path class="s-h8 ad1 adu4" d="M208.38 337.497l30.54-17.633v35.265z"></path>
                <path class="s-h9 ad4 adu2" d="M208.38 337.496v17.633h-30.54zM238.92 284.6l30.54-17.632v35.264zM238.92 284.6v17.632h-30.54zM147.3 337.497l30.54-17.633v35.265zM147.3 337.496v17.633h-30.54zM147.3 355.129v17.632l-30.54-17.632zM177.84 284.6l30.54-17.632v35.264zM177.84 249.335v17.633H147.3z"></path>
                <path class="s-h9 ad3 adu1" d="M177.84 284.6v17.632H147.3z"></path>
                <path class="s-h9 adu1" d="M116.76 390.393l30.54-17.632v35.264z"></path>
                <path class="s-h9 ad2 adu3" d="M238.92 390.393l30.54-17.632v35.264zM238.92 390.393v17.632h-30.54z"></path>
                <path class="s-h9 ad5 adu2" d="M177.84 390.393l30.54 17.632v-35.264zM177.84 390.393v-17.632H147.3z"></path>
                <path class="s-h9 ad1 aud3" d="M208.38 372.76l-30.54-17.631v17.632zM177.84 372.76V355.13L147.3 372.76z"></path>
                <path class="s-h9 adu1" d="M269.46 337.496l-30.54 17.632v-35.264z"></path>
                <path class="s-h8 ad3 adu1" d="M238.92 355.128h30.54v17.633z"></path>
                <path class="s-h9 adu3" d="M238.92 319.864l30.54-17.632v17.632z"></path>
                <path class="s-h9 ad1 adu3" d="M208.38 231.703v17.632h-30.54z"></path>
                <path class="s-h9 ad4 adu1" d="M177.84 496.187l30.54-17.633v35.265zM177.84 496.186v17.632H147.3zM208.38 408.025v17.632h-30.54zM208.38 443.29v17.631h-30.54z"></path>
                <path class="s-h9 ad5 adu2" d="M147.3 443.29v-17.633h30.54z"></path>
                <path class="s-h9 ad2 adu1" d="M116.76 496.186l30.54-17.633v35.265z"></path>
                <path class="s-h4 ad3 adu3" d="M25.14 266.968l30.54-17.632H25.14v17.632zm488.64 0v-17.633h-30.54l30.54 17.633zm0-17.633h30.54l-30.54-17.632v17.632zm61.08 17.633l-30.54-17.633v17.633h30.54zm-91.62-105.793H452.7l30.54 17.631v-17.631zm0 52.896h30.54v-17.632h-30.54v17.632zM422.16 73.013l30.54 17.633V73.013h-30.54zm61.08 17.632H452.7l30.54 17.633V90.645zM452.7 55.381v17.632h30.54L452.7 55.381zm0 52.897V90.645l-30.54 17.633h30.54zm0 17.632v17.632h30.54L452.7 125.91zm-61.08 17.632v17.633l30.54-17.633h-30.54zm61.08 17.633v-17.633h-30.54v17.633h30.54zm-30.54 0h-30.54l30.54 17.631v-17.631zm-152.7-70.53v17.633H300l-30.54-17.633zm0 17.633h-30.54l30.54 17.632v-17.632zM300 90.646v17.632l30.54-17.632H300zm0 52.896h-61.08l30.54 17.633L300 143.542zm30.54-17.631L300 143.543h30.54V125.91zm.177 35.162l30.273 17.887.178-17.631-30.364-.306 30.276-17.48v17.632h30.54l-30.54-17.633 30.54-17.632-30.54-17.632v35.264h-30.54v17.633l.177-.102zm-152.877.102H147.3l30.54 17.632v-17.632zm0-17.633v17.633h30.54l-30.54-17.633zm0 52.897v17.632l30.54-17.632h-30.54zm-91.62 0v17.632h30.54L86.22 196.44zm30.54 0v17.632l30.54-17.632h-30.54zm-30.54 17.632H55.68l30.54 17.632v-17.632zm0 35.264v17.633l30.54-17.633H86.22zm305.222-52.897l.178-17.631-30.538-.308 30.36 17.939zM452.7 37.748v17.633l30.54-17.632H452.7zm-91.62 176.323l-30.54-17.632v17.632h30.54zm-61.08 0l30.54 17.632v-17.632H300zm30.54 52.897L300 249.335h30.54v-17.632L300 249.335v17.633h30.54zm30.54-17.633h-30.54v17.633l30.54-17.633zM300 284.6v-17.631h-30.54L300 284.599zm0 35.265l30.54-17.632H300v17.632zm0-141.057v17.632h30.54L300 178.807zM361.08 284.6l-30.54 17.632h30.54V284.6zm91.62-17.632l-30.54-17.633v17.633h30.54zm-61.08-17.633v17.633l30.54-17.633h-30.54zm30.54 35.265l-17.01-9.821 17.01 9.82v-17.631h-30.54v35.264h-30.54v17.632l30.54 17.632v-17.632h-30.54l30.54-17.632v17.632h30.54l-30.54-17.632 30.54-17.632zm-152.7-52.897v17.632H300l-30.54-17.632zm0-35.264l-30.54 17.632h30.54v-17.632L300 214.071V196.44h-30.54zm213.78 282.115H452.7l30.54 17.632v-17.632zm-61.08 35.264v-17.632l-30.54 17.632h30.54zm-61.08 0h30.54l-30.54-17.632v17.632zm61.08-158.69v17.633h30.54l-30.54-17.633zm0 17.633h-30.54l30.54 17.632V372.76zm30.54-70.529v17.632h30.54l-30.54 17.633 30.54 17.632v-35.265l-30.54-17.633v.001zm-30.54 0v17.632l30.54-17.632h-30.54zm30.54 35.264v-17.632h-30.54l30.54 17.632zm-91.62 35.265h-30.54l30.54 17.632V372.76zm30.54 0l-30.54-17.633v17.633h30.54zm0 0l30.54-17.633h-30.54v17.632zm61.08 35.264h-30.54v17.632l30.54-17.632v17.632h30.54L452.7 443.29l30.54 17.631H452.7v17.633l30.54-17.632v-35.265l-30.54-17.632zm0 35.264l-30.54-17.632v35.265h-30.54v17.632l30.54 17.632v-17.632h-30.54l30.54-17.632v17.632h30.54l-30.54-17.632 30.54-17.633zm-91.62-35.264v17.632l30.54-17.632v17.632h30.54l-30.54-17.632h-30.54zM300 355.128l30.54 17.633v-17.633H300zm-30.54 17.632v35.265L300 390.392l-30.54-17.631H300v-17.633l-30.54 17.632zm-30.54-17.632h-30.54v17.633l30.54-17.632v17.632h30.54l-30.54-17.632zm91.62-17.631v17.631h30.54l-30.54-17.631zm0-17.633h30.54l-30.54-17.632v17.632zm30.54 141.057h30.54V443.29l-30.54 17.631zM300 408.025h30.54L300 390.393v17.632zm-91.62-105.793v17.632h30.54l-30.54-17.632zm0 17.632h-30.54l30.54 17.632v-17.632zm30.54-35.265v-17.631h-30.54l30.54 17.631zm-91.62 17.633v17.632h30.54l-30.54-17.632zm0 35.264v-17.632h-30.54l30.54 17.632zm0 35.265l30.54-17.632H147.3v17.632zm-30.54 0h30.54l-30.54-17.633v17.633zm61.08-88.162v-17.631H147.3l30.54 17.631zm0 35.265l30.54-17.632h-30.54v17.632zm-61.08 141.058l30.54 17.632v-17.632h-30.54l30.54-17.633-30.54-17.632 30.54-17.632h-30.54v52.897zm0-158.69h30.54L116.76 284.6v17.632zm61.08 88.161l-30.54 17.632h30.54v-17.632zM300 355.128l-30.54-17.631v17.631H300zm-30.54-17.631L300 319.864h-30.54v17.633zm-61.08-70.53l-30.54-17.632v17.633h30.54l30.54-17.632v17.632h30.54v-17.633h-61.08v17.633zm30.54 246.851v-17.632l-30.54 17.632h30.54zm0-35.264h-30.54l30.54 17.632v-17.632zm-30.54 0l-30.54-17.633v17.633h30.54zm-30.54 17.632v-17.632H147.3l30.54 17.632zm30.54-88.16h-30.54v17.631l30.54 17.632v-17.632h-30.539l30.54-17.631v17.631h30.539l-30.54 17.633 30.54 17.632h-30.54v17.632l30.54-17.632v-35.265l-30.54-17.632 30.54-17.632V372.76h-30.54v35.264zM147.3 443.29v17.631h30.54L147.3 443.29zm0-17.633h30.54l-30.54-17.632v17.632zm-30.54 88.16h30.54l-30.54-17.631v17.632z"></path>
                <path class="s-h6 ad1 adu1" d="M544.32 214.071l-30.54 17.632 30.54 17.632 30.54-17.632-30.54-17.632zM422.16 196.44v17.632l30.54-17.632 30.54-17.632-30.54-17.633v35.265h-30.54zm0-35.264v17.631l30.54-17.631h-30.54zm30.54-35.265l-30.54 17.632h30.54V125.91zm-30.54 52.896l-30.54-17.632v35.265l30.54-17.633zm-61.08 0l30.54-17.631h-30.54v17.631zm122.16 35.265l-30.54 17.632 30.54 17.633h30.54v-17.632l-30.54 17.631v-35.264zm-274.86-70.529v17.633l30.54-17.633h-30.54zm61.08-17.632l-30.54-17.632v35.264l30.54-17.632zM300 143.542l30.54-17.632L300 108.278h-30.54v17.632L300 108.278v35.264zm61.08-35.264h-30.54v17.632l30.54-17.632zm0 35.264l-30.54-17.631v17.631h30.54zm-183.24 17.633v17.632l30.54-17.632h-30.54zM55.68 214.07V266.968h30.54l-30.54-17.632 30.54-17.633-30.54-17.632zm30.54 0v17.632l30.54-17.632H86.22zm61.08 17.633l30.54-17.633H147.3v17.633l-30.54-17.633v35.265l30.54-17.632zM452.7 55.38l-30.54 17.632h30.54V55.381zM483.24 284.6L452.7 302.23h30.54V284.6zM300 249.336l30.54-17.633L300 214.071v35.265zm30.54-35.265v17.632l30.54-17.632h-30.54zM238.92 284.6l30.54-17.631h-30.54v17.631zm0 35.265l30.54-17.632h-30.54v17.632zM300 284.6l-30.54-17.633v35.265L300 284.6zm122.16 0l30.54-17.632h-30.54v17.631zM300 196.438v-17.632l-30.54 17.632H300zm91.62 105.793L361.08 284.6v17.632h30.54zm-122.16-88.161v17.632L300 214.071h-30.54zM452.7 478.554v35.264l30.54-17.632-30.54-17.633zm-30.54 17.632l30.54-17.632h-30.54v17.632zm-30.54 17.632v-35.265l-30.54 17.633 30.54 17.632zm61.08-141.057h-30.54v17.632l30.54-17.632zm0-35.265l-30.54-17.632h-30.54v17.632l30.54-17.632v35.265l30.54-17.633zm0 0l30.54-17.632H452.7v17.632zm0 35.264l30.54-17.632H452.7v17.632zm-91.62 17.633l30.54-17.632h-30.54v17.632l-30.54-17.632v35.264l30.54-17.632zm30.54 35.264v-17.632l-30.54 17.632v35.265l30.54-17.632-30.54-17.633h30.54zm0 0v17.633l30.54-17.633h30.54v-17.632l-30.54 17.632h-30.54zm91.62 0H452.7v17.632l30.54-17.632zM300 284.6l30.54-17.631H300v17.631zm30.54 17.633l30.54-17.632-30.54-17.633v35.265L300 319.864h30.54v-17.632zm30.54-35.264V284.6l30.54-17.632h-30.54zm0 52.896l-30.54 17.633 30.54 17.631h30.54v-17.632l-30.54 17.632v-35.264zm-61.08 0l-30.54 17.633L300 355.128v-35.264zm30.54 35.264v-17.631L300 355.128h30.54zm91.62 105.793l-30.54-17.631v17.631h30.54zm61.08-52.896v-17.632l-30.54 17.632h30.54zm-183.24 0v-17.632l-30.54 17.632H300zm0-35.264v17.632l30.54-17.632H300zm-91.62-52.897v17.632l30.54-17.632h-30.54zM177.84 284.6l30.54-17.631h-30.54v17.631zm30.54-17.631v35.264l30.54-17.632-30.54-17.633zm-91.62 88.16l30.54-17.632-30.54-17.632v35.265zm30.54-17.632l30.54-17.632H147.3v17.632zM116.76 284.6l30.54 17.632 30.54-17.633-30.54-17.631-30.54 17.632zm122.16 88.16v17.633l30.54-17.632h-30.54zm0 35.265h30.54l-30.54-17.632v17.632zm-30.54 0l-30.54-17.632v17.632h30.54zm-30.54-35.264v17.632l-30.54-17.632v35.264l30.54-17.632 30.54-17.632h-30.54zm-30.54 52.896v-17.632l-30.54 17.632h30.54zm-30.54-35.264l30.54-17.632h-30.54v17.632zm152.7-35.265v-17.631l-30.54 17.631h30.54zm-61.08-123.424l30.54 17.632h30.54v-17.632l-30.54 17.631v-35.264l-30.54 17.633zm-30.54 246.85v17.632l-30.54-17.632v35.265l30.54-17.633 30.54-17.632h-30.54zm30.54-35.265l30.54-17.632h-30.54v17.632zm-30.54 17.633v-35.265L147.3 443.29l30.54 17.632zM147.3 443.29l-30.54 17.631h30.54V443.29zm-30.54 52.896l30.54-17.632h-30.54v17.632z"></path>
                <path class="s-h5 ad5 adu2" d="M25.14 249.336h30.54l-30.54-17.633v17.633zm519.18 0l30.54 17.631v-17.632h-30.54zm-30.54 17.632h30.54v-17.633h-30.54v17.633zm-30.54-70.53H452.7v17.633h30.54l30.54 17.632v-17.632h-30.54v-17.632zm61.08 17.633l-30.54-17.632v17.632h30.54zm-61.08-35.265v17.633h30.54l-30.54-17.633zm-30.54-70.528h30.54L452.7 90.645v17.633zm-30.54 70.528v17.633h30.54l-30.54-17.633zm-30.54 17.633l30.54 17.632v-17.632h-30.54zm61.08 35.264v-17.632h-30.54l30.54 17.632zM300 73.013v17.633h30.54L300 73.013zm-30.54 52.897v17.632H300l-30.54-17.632zm122.16 17.632h-30.54l30.54 17.633v-17.633zm0 17.633h30.54v-17.633l-30.54-17.632v17.633h30.539l-30.54 17.632zm-61.08-17.633H300l30.54 17.633v-17.633zM452.7 90.645h-30.54v17.633l30.54 17.632v-17.632h-30.54l30.54-17.633zM147.3 196.44l30.54 17.632V196.44h-30.539l30.54-17.632v17.632h30.54l-30.54-17.632-30.54-17.632v35.264zm30.54-52.897l-30.54 17.633h30.54v-17.633zm30.54 0h-30.54l30.54 17.633v-17.633zm-91.62 35.265v17.632h30.54l-30.54-17.632zm91.62-52.897v17.632h30.54l-30.54-17.632zM86.22 231.703v17.633h30.54l-30.54-17.633zm0 35.265v-17.633H55.68l30.54 17.633zm152.7-88.161v-17.632h-30.54l30.54 17.632zm30.54-17.632l-30.54-17.633v17.633h30.54zM452.7 37.749h-30.54L452.7 55.38V37.75zm-91.62 229.219v-17.632l30.54 17.632v-17.632h-30.54l30.54-17.633-30.54-17.632v35.265l-30.54 17.632h30.54zm-30.54-17.633h30.54l-30.54-17.632v17.632zM300 284.6v17.633h30.54L300 284.599zm0 35.265v-17.632h-30.54v17.632H300zm122.16-70.528l-30.54 17.632h30.54v-17.633l-30.54-17.632v17.633h30.54zm-30.54 52.896l30.54 17.632v-17.632h-30.54zm-61.08-105.793H300v17.632h30.54V196.44zm30.54 105.793h-30.54l30.54 17.632v-17.632zm-91.62-88.161h-30.54l30.54 17.632v-17.632zm0-17.632v17.632H300l-30.54-17.632zm152.7 317.379h30.54l-30.54-17.632v17.632zm0-141.057v-17.633l-30.54 17.633h30.54zm0 52.896v-17.632h-30.54l30.54 17.632zm-30.54-17.632l-30.54-17.632v17.632h30.54l30.54-17.632v17.632h30.54l-30.54-17.632-30.54-17.632v35.264zm0-52.897h30.54l-30.54-17.632v17.632zm30.54-70.529v17.633h30.54l-30.54 17.632h30.54v-17.632l-30.54-17.633zm30.54 52.897v17.633h30.54l-30.54-17.633zm-30.54 17.632l30.54 17.633v-17.633h-30.54zm-91.62 17.633h30.54v-17.633h-30.54v17.633zm61.08 0v-17.633h-30.54l30.54 17.632zm61.08 52.896h-30.54l30.54 17.632v-17.632zm30.539 35.264l-30.54 17.633h30.54V460.92L452.7 443.29v17.632h30.54zm-61.08 0l30.54 17.633V460.92h-30.54zM330.54 319.864H300l30.54 17.633v-17.633zm36.825 144.686l-6.285-3.629v17.633h30.54V460.92h-30.54l6.285 3.629zm115.875-91.79H452.7l30.54 17.633v-17.632zm-183.24 0h30.54L300 355.128v17.632zm0-17.632h-30.54v17.633L300 390.393V372.76h-30.54L300 355.128zM238.92 284.6v17.633h30.54l-30.54-17.633zM116.76 408.025h30.54l-30.54-17.632v17.632zm122.16-105.793h-30.54l30.54 17.632v-17.632zm-30.54 35.264l-30.54-17.632v35.265l-30.54-17.633v17.633h30.54l30.54 17.632v-17.632h-30.539l30.54-17.633v17.633h30.539l-30.54 17.632h30.54v-17.632l-30.54-17.633zm-30.54-35.264h30.54l-30.54-17.633v17.633zm30.54 0l-30.54 17.632h30.54v-17.632zm0 105.793l30.54 17.632v-17.632h-30.54zm-30.54-88.161v-17.632H147.3l30.54 17.632zm-61.08 0h30.54v-17.632h-30.54v17.632zm152.7 17.633v-17.633h-30.54l30.54 17.633zm-61.08-88.162h30.54l-30.54 17.633h30.54v-17.633l-30.54-17.632v17.632zm-30.54 0l30.54 17.633v-17.633h-30.54zm30.54 264.483l-30.54-17.632v17.632h30.54l30.54-17.632-30.54-17.632v35.264zm-30.54-52.897l30.54-17.632-30.54-17.632v-17.632H147.3l30.54 17.633v35.263H147.3v17.633h30.54v-17.632l30.54 17.632V460.92h-30.54zm30.54 0h30.54l-30.54 17.633h30.54v-17.633l-30.54-17.632v17.632zm-61.08-35.264h-30.54l30.54 17.633v-17.633zm-30.54 52.897h30.54l-30.54-17.633v17.633z"></path>
              </svg>