<?xml version="1.0" encoding="utf-8"?>
<!-- Generator: Adobe Illustrator 18.0.0, SVG Export Plug-In . SVG Version: 6.00 Build 0)  -->
<!DOCTYPE svg PUBLIC "-//W3C//DTD SVG 1.1//EN" "http://www.w3.org/Graphics/SVG/1.1/DTD/svg11.dtd">
<svg version="1.1" id="Layer_1" xmlns="http://www.w3.org/2000/svg" xmlns:xlink="http://www.w3.org/1999/xlink" x="0px" y="0px"
	 width="841.9px" height="595.3px" viewBox="0 0 841.9 595.3" enable-background="new 0 0 841.9 595.3" xml:space="preserve">
<g>
	<rect y="0" fill="#FFFFFF" width="841.9" height="595.3"/>
	<g>
		<polygon fill="#F7C41F" points="0,284.2 841.9,348.3 841.9,309.9 0,245.8 		"/>
		<polygon fill="#FFDE17" points="0,349.5 841.9,295.3 841.9,256.9 0,311.1 		"/>
		<g>
			<path d="M35.7,324.3l3.5-1.8l1.7,4.3l2.2-3.9l2.2,3.4l1.3-4.9l3.2,2l-2.7,10l-3.5-3.2l-3.1,4.5L35.7,324.3z"/>
			<path d="M58.4,331.4c-0.3,0.3-0.7,0.6-1.1,0.9c-0.4,0.3-0.9,0.5-1.4,0.6s-1.1,0.3-1.6,0.3c-0.6,0-1.1,0-1.6-0.2
				c-0.5-0.1-1-0.4-1.5-0.7c-0.4-0.3-0.8-0.8-1.1-1.4c-0.3-0.6-0.6-1.3-0.7-1.9c-0.1-0.7-0.1-1.3,0-1.9c0.1-0.6,0.3-1.2,0.6-1.8
				c0.3-0.6,0.6-1.1,1.1-1.5s0.9-0.9,1.4-1.2c0.5-0.4,1.1-0.6,1.8-0.8c0.6-0.2,1.2-0.3,1.7-0.2c0.5,0,1,0.1,1.5,0.3
				c0.4,0.2,0.8,0.4,1.1,0.6c0.3,0.3,0.6,0.5,0.7,0.8c0.3,0.5,0.6,1.1,0.7,1.8c0.2,0.7,0.3,1.4,0.2,2.1c0,0.7-0.2,1.5-0.5,2.2
				C59.4,330,59,330.7,58.4,331.4z M56.2,325.9c-0.2-0.3-0.4-0.5-0.6-0.6c-0.3-0.1-0.5-0.1-0.8-0.1c-0.3,0-0.6,0.1-0.8,0.3
				c-0.3,0.2-0.5,0.4-0.8,0.7c-0.2,0.3-0.4,0.6-0.5,1c-0.1,0.4-0.2,0.8-0.2,1.3c0,0.4,0.1,0.8,0.2,1c0.1,0.3,0.3,0.4,0.5,0.6
				c0.2,0.1,0.4,0.2,0.7,0.2c0.3,0,0.5-0.1,0.8-0.2c0.2-0.1,0.5-0.3,0.7-0.4c0.2-0.2,0.4-0.4,0.5-0.6c0.2-0.4,0.3-0.7,0.4-1
				s0.1-0.6,0.1-0.8c0-0.2,0-0.5-0.1-0.7C56.4,326.2,56.3,326,56.2,325.9z"/>
			<path d="M69.2,329.9l-1.9,2.5l-3.4-2.2l0.1,2.3l-3.2-0.1L59.9,322c1.7-0.3,3.3-0.6,4.8-0.8c0.8-0.1,1.5-0.1,2.1,0.1
				c0.6,0.2,1,0.5,1.3,0.8c0.3,0.4,0.5,0.8,0.6,1.4c0.1,0.5,0,1.1-0.1,1.7c-0.2,0.6-0.4,1.1-0.8,1.7c-0.4,0.6-0.9,1.1-1.5,1.5
				L69.2,329.9z M63.3,324.8l0,2.1c0.3-0.1,0.6-0.2,0.8-0.4c0.2-0.1,0.4-0.3,0.6-0.5s0.3-0.3,0.3-0.5c0.1-0.1,0.1-0.3,0.1-0.3
				c0,0,0-0.1,0-0.1c0-0.1,0-0.2-0.1-0.3c0-0.1-0.1-0.2-0.2-0.3c-0.1-0.1-0.3-0.1-0.6-0.1C64.1,324.5,63.7,324.6,63.3,324.8z"/>
			<path d="M77.5,322.9l-3.5,3.7l3.5,2.5l-1.7,2.9l-2.7-2.3l0.1,1.7l-3.5,0.6l-0.9-10.7l3.9-0.7l0.1,2.4l2-3.1L77.5,322.9z"/>
			<path d="M85.3,319.8l0.1,10.8l-3.5,0.6l-0.6-10.7L85.3,319.8z"/>
			<path d="M86.4,319.8l5.4,3.9l-0.2-4.4l4,0l0,10.2l-5.3-2.2l0.4,3.1l-3.8,0.5L86.4,319.8z"/>
			<path d="M107.2,318.6c0.5,0.1,1,0.4,1.3,0.7c0.3,0.3,0.6,0.7,0.7,1.2s0.2,1,0.1,1.5c-0.1,0.5-0.2,1.1-0.4,1.7s-0.6,1.1-1,1.6
				c-0.4,0.5-0.9,0.9-1.5,1.3c-0.6,0.4-1.2,0.7-2,0.9l0.1,2.4l-3.2-0.1l-0.9-10.4c1.7-0.3,3.3-0.6,4.8-0.8
				C106,318.4,106.6,318.4,107.2,318.6z M105.7,322.7c0,0,0-0.1,0-0.1c0-0.1,0-0.2-0.1-0.3c0-0.1-0.1-0.2-0.2-0.3
				c-0.1-0.1-0.3-0.1-0.6-0.1c-0.3,0-0.6,0.1-1,0.3l0,2.1c0.3-0.1,0.6-0.2,0.8-0.4c0.2-0.1,0.4-0.3,0.6-0.5c0.1-0.2,0.3-0.3,0.3-0.5
				C105.7,322.9,105.7,322.8,105.7,322.7z"/>
			<path d="M118.1,326.8l-1.9,2.5l-3.4-2.2l0.1,2.3l-3.2-0.1l-0.9-10.4c1.7-0.3,3.3-0.6,4.8-0.8c0.8-0.1,1.5-0.1,2.1,0.1
				c0.6,0.2,1,0.5,1.3,0.8c0.3,0.4,0.5,0.8,0.6,1.4c0.1,0.5,0,1.1-0.1,1.7c-0.2,0.6-0.4,1.1-0.8,1.7c-0.4,0.6-0.9,1.1-1.5,1.5
				L118.1,326.8z M112.3,321.6l0,2.1c0.3-0.1,0.6-0.2,0.8-0.4c0.2-0.1,0.4-0.3,0.6-0.5s0.3-0.3,0.3-0.5c0.1-0.1,0.1-0.3,0.1-0.3
				c0,0,0-0.1,0-0.1c0-0.1,0-0.2-0.1-0.3c0-0.1-0.1-0.2-0.2-0.3s-0.3-0.1-0.6-0.1C113,321.3,112.7,321.4,112.3,321.6z"/>
			<path d="M126.4,327.1c-0.3,0.3-0.7,0.6-1.1,0.9c-0.4,0.3-0.9,0.5-1.4,0.6c-0.5,0.2-1.1,0.3-1.6,0.3c-0.6,0-1.1,0-1.6-0.2
				c-0.5-0.1-1-0.4-1.5-0.7c-0.4-0.3-0.8-0.8-1.1-1.4c-0.3-0.6-0.6-1.3-0.7-1.9c-0.1-0.7-0.1-1.3,0-1.9c0.1-0.6,0.3-1.2,0.6-1.8
				c0.3-0.6,0.6-1.1,1.1-1.5s0.9-0.9,1.4-1.2c0.5-0.4,1.1-0.6,1.8-0.8c0.6-0.2,1.2-0.3,1.7-0.2c0.5,0,1,0.1,1.5,0.3
				c0.4,0.2,0.8,0.4,1.1,0.6c0.3,0.3,0.6,0.5,0.7,0.8c0.3,0.5,0.6,1.1,0.7,1.8c0.2,0.7,0.3,1.4,0.2,2.1c0,0.7-0.2,1.5-0.5,2.2
				S127,326.4,126.4,327.1z M124.3,321.5c-0.2-0.3-0.4-0.5-0.6-0.6c-0.3-0.1-0.5-0.1-0.8-0.1c-0.3,0-0.6,0.1-0.8,0.3
				c-0.3,0.2-0.5,0.4-0.8,0.7c-0.2,0.3-0.4,0.6-0.5,1c-0.1,0.4-0.2,0.8-0.2,1.3c0,0.4,0.1,0.8,0.2,1c0.1,0.3,0.3,0.4,0.5,0.6
				c0.2,0.1,0.4,0.2,0.7,0.2c0.3,0,0.5-0.1,0.8-0.2c0.2-0.1,0.5-0.3,0.7-0.4c0.2-0.2,0.4-0.4,0.5-0.6c0.2-0.4,0.3-0.7,0.4-1
				c0.1-0.3,0.1-0.6,0.1-0.8c0-0.2,0-0.5-0.1-0.7C124.4,321.8,124.4,321.7,124.3,321.5z"/>
			<path d="M135.5,320.9c-0.1-0.3-0.4-0.5-0.6-0.6c-0.3-0.1-0.6-0.2-0.9-0.1c-0.3,0-0.7,0.1-1,0.3c-0.3,0.2-0.7,0.4-0.9,0.7
				c-0.3,0.3-0.5,0.6-0.7,1c-0.2,0.4-0.2,0.8-0.2,1.3c0,0.4,0.1,0.8,0.3,1c0.2,0.3,0.4,0.4,0.6,0.5c0.2,0.1,0.5,0.1,0.8,0.1
				c0.3,0,0.5-0.1,0.8-0.3c0.3-0.1,0.5-0.3,0.7-0.5c0.2-0.2,0.4-0.5,0.4-0.7l-1.9,0.5l0.1-2.2l5.8-1.1c0.1,0.6,0.1,1.1,0,1.7
				c-0.1,0.6-0.2,1.1-0.4,1.5c-0.2,0.5-0.4,0.9-0.6,1.3c-0.2,0.4-0.4,0.7-0.6,0.9c-0.2,0.2-0.2,0.3-0.3,0.3
				c-0.3,0.3-0.7,0.6-1.1,0.9c-0.4,0.3-0.9,0.5-1.4,0.6s-1.1,0.2-1.6,0.3c-0.6,0-1.1,0-1.6-0.2c-0.5-0.1-1-0.4-1.5-0.7
				s-0.8-0.8-1.1-1.4c-0.3-0.6-0.6-1.3-0.6-2c-0.1-0.7-0.1-1.3,0-1.9c0.1-0.6,0.3-1.2,0.6-1.8c0.3-0.6,0.7-1.1,1.1-1.6
				c0.4-0.5,0.9-0.9,1.5-1.2c0.6-0.3,1.2-0.6,1.8-0.8c0,0,0.1,0,0.3-0.1c0.2,0,0.4-0.1,0.8-0.1c0.3,0,0.7,0,1.1,0.1s0.9,0.2,1.4,0.5
				c0.5,0.2,1,0.6,1.5,1L135.5,320.9z"/>
			<path d="M148.1,324.9l-1.9,2.5l-3.4-2.2l0.1,2.3l-3.2-0.1l-0.9-10.4c1.7-0.3,3.3-0.6,4.8-0.8c0.8-0.1,1.5-0.1,2.1,0.1
				c0.6,0.2,1,0.5,1.3,0.8c0.3,0.4,0.5,0.8,0.6,1.4c0.1,0.5,0,1.1-0.1,1.7c-0.2,0.6-0.4,1.1-0.8,1.7c-0.4,0.6-0.9,1.1-1.5,1.5
				L148.1,324.9z M142.2,319.7l0,2.1c0.3-0.1,0.6-0.2,0.8-0.4c0.2-0.1,0.4-0.3,0.6-0.5c0.1-0.2,0.3-0.3,0.3-0.5
				c0.1-0.1,0.1-0.3,0.1-0.3c0,0,0-0.1,0-0.1c0-0.1,0-0.2-0.1-0.3c0-0.1-0.1-0.2-0.2-0.3c-0.1-0.1-0.3-0.1-0.6-0.1
				C142.9,319.4,142.6,319.5,142.2,319.7z"/>
			<path d="M147.7,316.4l7.3-1l-0.2,3.4l-3.3,0.4l0,0.6l2.4-0.3l-0.1,2.3l-2.2,0.3l0,0.7l3.8-0.6l0.2,3.7l-7.1,0.8L147.7,316.4z"/>
			<path d="M160.9,319.2c0.3,0.1,0.6,0.2,0.9,0.4c0.3,0.1,0.6,0.3,0.8,0.5c0.2,0.2,0.5,0.5,0.6,0.8c0.2,0.3,0.3,0.7,0.3,1.1
				c0.1,0.6,0,1.2-0.2,1.7c-0.2,0.5-0.5,0.9-0.9,1.3c-0.4,0.4-0.9,0.6-1.5,0.9c-0.6,0.2-1.2,0.4-1.9,0.4c-0.3,0-0.6,0-1,0
				c-0.3,0-0.7-0.1-1-0.1c-0.3-0.1-0.6-0.1-0.9-0.2c-0.3-0.1-0.6-0.2-0.9-0.3l0.8-2.9c0.1,0,0.3,0.1,0.5,0.2
				c0.2,0.1,0.4,0.1,0.6,0.2c0.2,0.1,0.4,0.1,0.7,0.1c0.2,0,0.5,0,0.7,0c0.3,0,0.6-0.1,0.8-0.2c0.2-0.1,0.3-0.3,0.3-0.5
				c0-0.1-0.1-0.3-0.3-0.3c-0.2-0.1-0.3-0.1-0.5-0.2c-0.1,0-0.3-0.1-0.5-0.1c-0.2,0-0.5-0.1-0.7-0.2c-0.3-0.1-0.5-0.2-0.8-0.3
				c-0.3-0.1-0.5-0.3-0.7-0.5c-0.2-0.2-0.4-0.4-0.6-0.7c-0.2-0.3-0.2-0.6-0.3-1c-0.1-0.6,0-1.2,0.2-1.7c0.2-0.5,0.5-0.9,0.9-1.3
				c0.4-0.4,0.8-0.7,1.3-0.9c0.5-0.2,1.1-0.4,1.7-0.4c0.6-0.1,1.1-0.1,1.7,0c0.6,0,1.1,0.2,1.6,0.3l-0.6,3.1c-0.4-0.1-0.7-0.2-1-0.3
				c-0.3-0.1-0.6-0.1-1-0.2c-0.1,0-0.3,0-0.5,0c-0.2,0-0.4,0-0.5,0.1c-0.2,0.1-0.3,0.1-0.5,0.2c-0.1,0.1-0.2,0.2-0.2,0.4
				c0,0.1,0,0.1,0.1,0.2c0.1,0,0.2,0.1,0.2,0.1c0.1,0,0.2,0,0.3,0c0.1,0,0.2,0,0.2,0c0.3,0,0.5,0.1,0.8,0.1
				C160.5,319.1,160.7,319.1,160.9,319.2z"/>
			<path d="M168.8,318.7c0.3,0.1,0.6,0.2,0.9,0.4c0.3,0.1,0.6,0.3,0.8,0.5c0.2,0.2,0.5,0.5,0.6,0.8c0.2,0.3,0.3,0.7,0.3,1.1
				c0.1,0.6,0,1.2-0.2,1.7c-0.2,0.5-0.5,0.9-0.9,1.3c-0.4,0.4-0.9,0.6-1.5,0.9c-0.6,0.2-1.2,0.4-1.9,0.4c-0.3,0-0.6,0-1,0
				c-0.3,0-0.7-0.1-1-0.1c-0.3-0.1-0.6-0.1-0.9-0.2c-0.3-0.1-0.6-0.2-0.9-0.3l0.8-2.9c0.1,0,0.3,0.1,0.5,0.2
				c0.2,0.1,0.4,0.1,0.6,0.2c0.2,0.1,0.4,0.1,0.7,0.1c0.2,0,0.5,0,0.7,0c0.3,0,0.6-0.1,0.8-0.2c0.2-0.1,0.3-0.3,0.3-0.5
				c0-0.1-0.1-0.3-0.3-0.3c-0.2-0.1-0.3-0.1-0.5-0.2c-0.1,0-0.3-0.1-0.5-0.1c-0.2,0-0.5-0.1-0.7-0.2c-0.3-0.1-0.5-0.2-0.8-0.3
				c-0.3-0.1-0.5-0.3-0.7-0.5c-0.2-0.2-0.4-0.4-0.6-0.7c-0.2-0.3-0.2-0.6-0.3-1c-0.1-0.6,0-1.2,0.2-1.7c0.2-0.5,0.5-0.9,0.9-1.3
				c0.4-0.4,0.8-0.7,1.3-0.9c0.5-0.2,1.1-0.4,1.7-0.4c0.6-0.1,1.1-0.1,1.7,0c0.6,0,1.1,0.2,1.6,0.3l-0.6,3.1c-0.4-0.1-0.7-0.2-1-0.3
				c-0.3-0.1-0.6-0.1-1-0.2c-0.1,0-0.3,0-0.5,0c-0.2,0-0.4,0-0.5,0.1c-0.2,0.1-0.3,0.1-0.5,0.2c-0.1,0.1-0.2,0.2-0.2,0.4
				c0,0.1,0,0.1,0.1,0.2c0.1,0,0.2,0.1,0.2,0.1c0.1,0,0.2,0,0.3,0c0.1,0,0.2,0,0.2,0c0.3,0,0.5,0.1,0.8,0.1
				C168.3,318.6,168.6,318.6,168.8,318.7z"/>
			<path d="M195.3,314l3.5-1.8l1.7,4.3l2.2-3.9l2.2,3.4l1.3-4.9l3.2,2l-2.7,10l-3.5-3.2l-3.1,4.5L195.3,314z"/>
			<path d="M218,321.2c-0.3,0.3-0.7,0.6-1.1,0.9c-0.4,0.3-0.9,0.5-1.4,0.6s-1.1,0.3-1.6,0.3c-0.6,0-1.1,0-1.6-0.2
				c-0.5-0.1-1-0.4-1.5-0.7c-0.4-0.3-0.8-0.8-1.1-1.4c-0.3-0.6-0.6-1.3-0.7-1.9c-0.1-0.7-0.1-1.3,0-1.9c0.1-0.6,0.3-1.2,0.6-1.8
				c0.3-0.6,0.6-1.1,1.1-1.5c0.4-0.5,0.9-0.9,1.4-1.2c0.5-0.4,1.1-0.6,1.8-0.8c0.6-0.2,1.2-0.3,1.7-0.2c0.5,0,1,0.1,1.5,0.3
				c0.4,0.2,0.8,0.4,1.1,0.6s0.6,0.5,0.7,0.8c0.3,0.5,0.6,1.1,0.7,1.8c0.2,0.7,0.3,1.4,0.2,2.1c0,0.7-0.2,1.5-0.5,2.2
				S218.6,320.5,218,321.2z M215.9,315.6c-0.2-0.3-0.4-0.5-0.6-0.6c-0.3-0.1-0.5-0.1-0.8-0.1c-0.3,0-0.6,0.1-0.8,0.3
				c-0.3,0.2-0.5,0.4-0.8,0.7c-0.2,0.3-0.4,0.6-0.5,1c-0.1,0.4-0.2,0.8-0.2,1.3c0,0.4,0.1,0.8,0.2,1c0.1,0.3,0.3,0.4,0.5,0.6
				c0.2,0.1,0.4,0.2,0.7,0.2c0.3,0,0.5-0.1,0.8-0.2c0.2-0.1,0.5-0.3,0.7-0.4c0.2-0.2,0.4-0.4,0.5-0.6c0.2-0.4,0.3-0.7,0.4-1
				c0.1-0.3,0.1-0.6,0.1-0.8c0-0.2,0-0.5-0.1-0.7C216,315.9,216,315.8,215.9,315.6z"/>
			<path d="M228.8,319.7l-1.9,2.5l-3.4-2.2l0.1,2.3l-3.2-0.1l-0.9-10.4c1.7-0.3,3.3-0.6,4.8-0.8c0.8-0.1,1.5-0.1,2.1,0.1
				c0.6,0.2,1,0.5,1.3,0.8c0.3,0.4,0.5,0.8,0.6,1.4c0.1,0.5,0,1.1-0.1,1.7c-0.2,0.6-0.4,1.1-0.8,1.7c-0.4,0.6-0.9,1.1-1.5,1.5
				L228.8,319.7z M223,314.5l0,2.1c0.3-0.1,0.6-0.2,0.8-0.4c0.2-0.1,0.4-0.3,0.6-0.5c0.1-0.2,0.3-0.3,0.3-0.5
				c0.1-0.1,0.1-0.3,0.1-0.3c0,0,0-0.1,0-0.1c0-0.1,0-0.2-0.1-0.3c0-0.1-0.1-0.2-0.2-0.3c-0.1-0.1-0.3-0.1-0.6-0.1
				C223.7,314.2,223.4,314.3,223,314.5z"/>
			<path d="M237.1,312.6l-3.5,3.7l3.5,2.5l-1.7,2.9l-2.7-2.3l0.1,1.7l-3.5,0.6l-0.9-10.7l3.9-0.7l0.1,2.4l2-3.1L237.1,312.6z"/>
			<path d="M245,309.5l0.1,10.8l-3.5,0.6l-0.6-10.7L245,309.5z"/>
			<path d="M246,309.6l5.4,3.9l-0.2-4.4l4,0l0,10.2L250,317l0.4,3.1l-3.8,0.5L246,309.6z"/>
			<path d="M266.8,308.3c0.5,0.1,1,0.4,1.3,0.7c0.3,0.3,0.6,0.7,0.7,1.2c0.1,0.5,0.2,1,0.1,1.5c-0.1,0.5-0.2,1.1-0.4,1.7
				c-0.2,0.6-0.6,1.1-1,1.6c-0.4,0.5-0.9,0.9-1.5,1.3c-0.6,0.4-1.2,0.7-2,0.9l0.1,2.4l-3.2-0.1l-0.9-10.4c1.7-0.3,3.3-0.6,4.8-0.8
				C265.6,308.1,266.2,308.2,266.8,308.3z M265.3,312.4c0,0,0-0.1,0-0.1c0-0.1,0-0.2-0.1-0.3c0-0.1-0.1-0.2-0.2-0.3
				c-0.1-0.1-0.3-0.1-0.6-0.1c-0.3,0-0.6,0.1-1,0.3l0,2.1c0.3-0.1,0.6-0.2,0.8-0.4c0.2-0.1,0.4-0.3,0.6-0.5c0.1-0.2,0.3-0.3,0.3-0.5
				C265.3,312.6,265.3,312.5,265.3,312.4z"/>
			<path d="M277.8,316.5l-1.9,2.5l-3.4-2.2l0.1,2.3l-3.2-0.1l-0.9-10.4c1.7-0.3,3.3-0.6,4.8-0.8c0.8-0.1,1.5-0.1,2.1,0.1
				c0.6,0.2,1,0.5,1.3,0.8c0.3,0.4,0.5,0.8,0.6,1.4c0.1,0.5,0,1.1-0.1,1.7c-0.2,0.6-0.4,1.1-0.8,1.7c-0.4,0.6-0.9,1.1-1.5,1.5
				L277.8,316.5z M271.9,311.3l0,2.1c0.3-0.1,0.6-0.2,0.8-0.4c0.2-0.1,0.4-0.3,0.6-0.5s0.3-0.3,0.3-0.5c0.1-0.1,0.1-0.3,0.1-0.3
				c0,0,0-0.1,0-0.1c0-0.1,0-0.2-0.1-0.3c0-0.1-0.1-0.2-0.2-0.3c-0.1-0.1-0.3-0.1-0.6-0.1C272.7,311,272.3,311.1,271.9,311.3z"/>
			<path d="M286,316.8c-0.3,0.3-0.7,0.6-1.1,0.9c-0.4,0.3-0.9,0.5-1.4,0.6c-0.5,0.2-1.1,0.3-1.6,0.3c-0.6,0-1.1,0-1.6-0.2
				c-0.5-0.1-1-0.4-1.5-0.7c-0.4-0.3-0.8-0.8-1.1-1.4c-0.3-0.6-0.6-1.3-0.7-1.9c-0.1-0.7-0.1-1.3,0-1.9c0.1-0.6,0.3-1.2,0.6-1.8
				c0.3-0.6,0.6-1.1,1.1-1.5c0.4-0.5,0.9-0.9,1.4-1.2c0.5-0.4,1.1-0.6,1.8-0.8c0.6-0.2,1.2-0.3,1.7-0.2c0.5,0,1,0.1,1.5,0.3
				c0.4,0.2,0.8,0.4,1.1,0.6c0.3,0.3,0.6,0.5,0.7,0.8c0.3,0.5,0.6,1.1,0.7,1.8c0.2,0.7,0.3,1.4,0.2,2.1c0,0.7-0.2,1.5-0.5,2.2
				C287.1,315.3,286.6,316.1,286,316.8z M283.9,311.2c-0.2-0.3-0.4-0.5-0.6-0.6c-0.3-0.1-0.5-0.1-0.8-0.1c-0.3,0-0.6,0.1-0.8,0.3
				c-0.3,0.2-0.5,0.4-0.8,0.7c-0.2,0.3-0.4,0.6-0.5,1c-0.1,0.4-0.2,0.8-0.2,1.3c0,0.4,0.1,0.8,0.2,1c0.1,0.3,0.3,0.4,0.5,0.6
				c0.2,0.1,0.4,0.2,0.7,0.2c0.3,0,0.5-0.1,0.8-0.2c0.2-0.1,0.5-0.3,0.7-0.4c0.2-0.2,0.4-0.4,0.5-0.6c0.2-0.4,0.3-0.7,0.4-1
				c0.1-0.3,0.1-0.6,0.1-0.8c0-0.2,0-0.5-0.1-0.7C284.1,311.6,284,311.4,283.9,311.2z"/>
			<path d="M295.2,310.7c-0.1-0.3-0.4-0.5-0.6-0.6c-0.3-0.1-0.6-0.2-0.9-0.1c-0.3,0-0.7,0.1-1,0.3c-0.3,0.2-0.7,0.4-0.9,0.7
				s-0.5,0.6-0.7,1c-0.2,0.4-0.2,0.8-0.2,1.3c0,0.4,0.1,0.8,0.3,1c0.2,0.3,0.4,0.4,0.6,0.5c0.2,0.1,0.5,0.1,0.8,0.1
				c0.3,0,0.5-0.1,0.8-0.3c0.3-0.1,0.5-0.3,0.7-0.5c0.2-0.2,0.4-0.5,0.4-0.7l-1.9,0.5l0.1-2.2l5.8-1.1c0.1,0.6,0.1,1.1,0,1.7
				c-0.1,0.6-0.2,1.1-0.4,1.5c-0.2,0.5-0.4,0.9-0.6,1.3c-0.2,0.4-0.4,0.7-0.6,0.9c-0.2,0.2-0.2,0.3-0.3,0.3
				c-0.3,0.3-0.7,0.6-1.1,0.9c-0.4,0.3-0.9,0.5-1.4,0.6c-0.5,0.2-1.1,0.2-1.6,0.3c-0.6,0-1.1,0-1.6-0.2c-0.5-0.1-1-0.4-1.5-0.7
				s-0.8-0.8-1.1-1.4c-0.3-0.6-0.6-1.3-0.6-2c-0.1-0.7-0.1-1.3,0-1.9c0.1-0.6,0.3-1.2,0.6-1.8c0.3-0.6,0.7-1.1,1.1-1.6
				c0.4-0.5,0.9-0.9,1.5-1.2c0.6-0.3,1.1-0.6,1.8-0.8c0,0,0.1,0,0.3-0.1c0.2,0,0.4-0.1,0.8-0.1c0.3,0,0.7,0,1.1,0.1s0.9,0.2,1.4,0.5
				c0.5,0.2,1,0.6,1.5,1L295.2,310.7z"/>
			<path d="M307.7,314.6l-1.9,2.5l-3.4-2.2l0.1,2.3l-3.2-0.1l-0.9-10.4c1.7-0.3,3.3-0.6,4.8-0.8c0.8-0.1,1.5-0.1,2.1,0.1
				c0.6,0.2,1,0.5,1.3,0.8c0.3,0.4,0.5,0.8,0.6,1.4c0.1,0.5,0,1.1-0.1,1.7c-0.2,0.6-0.4,1.1-0.8,1.7c-0.4,0.6-0.9,1.1-1.5,1.5
				L307.7,314.6z M301.9,309.4l0,2.1c0.3-0.1,0.6-0.2,0.8-0.4c0.2-0.1,0.4-0.3,0.6-0.5c0.1-0.2,0.3-0.3,0.3-0.5
				c0.1-0.1,0.1-0.3,0.1-0.3c0,0,0-0.1,0-0.1c0-0.1,0-0.2-0.1-0.3c0-0.1-0.1-0.2-0.2-0.3c-0.1-0.1-0.3-0.1-0.6-0.1
				C302.6,309.1,302.3,309.2,301.9,309.4z"/>
			<path d="M307.3,306.2l7.3-1l-0.2,3.4l-3.3,0.4l0,0.6l2.4-0.3l-0.1,2.3l-2.2,0.3l0,0.7l3.8-0.6l0.2,3.7l-7.1,0.8L307.3,306.2z"/>
			<path d="M320.6,308.9c0.3,0.1,0.6,0.2,0.9,0.4c0.3,0.1,0.6,0.3,0.8,0.5c0.2,0.2,0.5,0.5,0.6,0.8c0.2,0.3,0.3,0.7,0.3,1.1
				c0.1,0.6,0,1.2-0.2,1.7c-0.2,0.5-0.5,0.9-0.9,1.3c-0.4,0.4-0.9,0.6-1.5,0.9c-0.6,0.2-1.2,0.4-1.9,0.4c-0.3,0-0.6,0-1,0
				c-0.3,0-0.7-0.1-1-0.1c-0.3-0.1-0.6-0.1-0.9-0.2c-0.3-0.1-0.6-0.2-0.9-0.3l0.8-2.9c0.1,0,0.3,0.1,0.5,0.2
				c0.2,0.1,0.4,0.1,0.6,0.2c0.2,0.1,0.4,0.1,0.7,0.1c0.2,0,0.5,0,0.7,0c0.3,0,0.6-0.1,0.8-0.2c0.2-0.1,0.3-0.3,0.3-0.5
				c0-0.1-0.1-0.3-0.3-0.3c-0.2-0.1-0.3-0.1-0.5-0.2c-0.1,0-0.3-0.1-0.5-0.1c-0.2,0-0.5-0.1-0.7-0.2c-0.3-0.1-0.5-0.2-0.8-0.3
				s-0.5-0.3-0.7-0.5c-0.2-0.2-0.4-0.4-0.6-0.7c-0.2-0.3-0.2-0.6-0.3-1c-0.1-0.6,0-1.2,0.2-1.7c0.2-0.5,0.5-0.9,0.9-1.3
				c0.4-0.4,0.8-0.7,1.3-0.9c0.5-0.2,1.1-0.4,1.7-0.4c0.6-0.1,1.1-0.1,1.7,0c0.6,0,1.1,0.2,1.6,0.3l-0.6,3.1c-0.4-0.1-0.7-0.2-1-0.3
				c-0.3-0.1-0.6-0.1-1-0.2c-0.1,0-0.3,0-0.5,0c-0.2,0-0.4,0-0.5,0.1c-0.2,0.1-0.3,0.1-0.5,0.2c-0.1,0.1-0.2,0.2-0.2,0.4
				c0,0.1,0,0.1,0.1,0.2c0.1,0,0.2,0.1,0.2,0.1c0.1,0,0.2,0,0.3,0c0.1,0,0.2,0,0.2,0c0.3,0,0.5,0.1,0.8,0.1
				C320.1,308.8,320.4,308.9,320.6,308.9z"/>
			<path d="M328.4,308.4c0.3,0.1,0.6,0.2,0.9,0.4c0.3,0.1,0.6,0.3,0.8,0.5c0.2,0.2,0.5,0.5,0.6,0.8c0.2,0.3,0.3,0.7,0.3,1.1
				c0.1,0.6,0,1.2-0.2,1.7c-0.2,0.5-0.5,0.9-0.9,1.3c-0.4,0.4-0.9,0.6-1.5,0.9c-0.6,0.2-1.2,0.4-1.9,0.4c-0.3,0-0.6,0-1,0
				c-0.3,0-0.7-0.1-1-0.1c-0.3-0.1-0.6-0.1-0.9-0.2c-0.3-0.1-0.6-0.2-0.9-0.3l0.8-2.9c0.1,0,0.3,0.1,0.5,0.2
				c0.2,0.1,0.4,0.1,0.6,0.2c0.2,0.1,0.4,0.1,0.7,0.1c0.2,0,0.5,0,0.7,0c0.3,0,0.6-0.1,0.8-0.2c0.2-0.1,0.3-0.3,0.3-0.5
				c0-0.1-0.1-0.3-0.3-0.3c-0.2-0.1-0.3-0.1-0.5-0.2c-0.1,0-0.3-0.1-0.5-0.1c-0.2,0-0.5-0.1-0.7-0.2c-0.3-0.1-0.5-0.2-0.8-0.3
				c-0.3-0.1-0.5-0.3-0.7-0.5c-0.2-0.2-0.4-0.4-0.6-0.7c-0.2-0.3-0.2-0.6-0.3-1c-0.1-0.6,0-1.2,0.2-1.7c0.2-0.5,0.5-0.9,0.9-1.3
				c0.4-0.4,0.8-0.7,1.3-0.9c0.5-0.2,1.1-0.4,1.7-0.4c0.6-0.1,1.1-0.1,1.7,0c0.6,0,1.1,0.2,1.6,0.3l-0.6,3.1c-0.4-0.1-0.7-0.2-1-0.3
				c-0.3-0.1-0.6-0.1-1-0.2c-0.1,0-0.3,0-0.5,0c-0.2,0-0.4,0-0.5,0.1c-0.2,0.1-0.3,0.1-0.5,0.2c-0.1,0.1-0.2,0.2-0.2,0.4
				c0,0.1,0,0.1,0.1,0.2c0.1,0,0.2,0.1,0.2,0.1c0.1,0,0.2,0,0.3,0c0.1,0,0.2,0,0.2,0c0.3,0,0.5,0.1,0.8,0.1
				C328,308.3,328.2,308.4,328.4,308.4z"/>
			<path d="M354.9,303.7l3.5-1.8l1.7,4.3l2.2-3.9l2.2,3.4l1.3-4.9l3.2,2l-2.7,10l-3.5-3.2l-3.1,4.5L354.9,303.7z"/>
			<path d="M377.7,310.9c-0.3,0.3-0.7,0.6-1.1,0.9c-0.4,0.3-0.9,0.5-1.4,0.6c-0.5,0.2-1.1,0.3-1.6,0.3c-0.6,0-1.1,0-1.6-0.2
				c-0.5-0.1-1-0.4-1.5-0.7c-0.4-0.3-0.8-0.8-1.1-1.4c-0.3-0.6-0.6-1.3-0.7-1.9c-0.1-0.7-0.1-1.3,0-1.9c0.1-0.6,0.3-1.2,0.6-1.8
				c0.3-0.6,0.6-1.1,1.1-1.5c0.4-0.5,0.9-0.9,1.5-1.2c0.5-0.4,1.1-0.6,1.8-0.8c0.6-0.2,1.2-0.3,1.7-0.2c0.5,0,1,0.1,1.5,0.3
				c0.4,0.2,0.8,0.4,1.1,0.6c0.3,0.3,0.6,0.5,0.7,0.8c0.3,0.5,0.6,1.1,0.7,1.8c0.2,0.7,0.3,1.4,0.2,2.1c0,0.7-0.2,1.5-0.5,2.2
				S378.3,310.2,377.7,310.9z M375.5,305.3c-0.2-0.3-0.4-0.5-0.6-0.6c-0.3-0.1-0.5-0.1-0.8-0.1c-0.3,0-0.6,0.1-0.8,0.3
				c-0.3,0.2-0.5,0.4-0.8,0.7c-0.2,0.3-0.4,0.6-0.5,1c-0.1,0.4-0.2,0.8-0.2,1.3c0,0.4,0.1,0.8,0.2,1c0.1,0.3,0.3,0.4,0.5,0.6
				s0.4,0.2,0.7,0.2s0.5-0.1,0.8-0.2c0.2-0.1,0.5-0.3,0.7-0.4c0.2-0.2,0.4-0.4,0.5-0.6c0.2-0.4,0.3-0.7,0.4-1
				c0.1-0.3,0.1-0.6,0.1-0.8c0-0.2,0-0.5-0.1-0.7C375.7,305.7,375.6,305.5,375.5,305.3z"/>
			<path d="M388.5,309.4l-1.9,2.5l-3.4-2.2l0.1,2.3l-3.2-0.1l-0.9-10.4c1.7-0.3,3.3-0.6,4.8-0.8c0.8-0.1,1.5-0.1,2.1,0.1
				c0.6,0.2,1,0.5,1.3,0.8c0.3,0.4,0.5,0.8,0.6,1.4c0.1,0.5,0,1.1-0.1,1.7c-0.2,0.6-0.4,1.1-0.8,1.7c-0.4,0.6-0.9,1.1-1.5,1.5
				L388.5,309.4z M382.6,304.2l0,2.1c0.3-0.1,0.6-0.2,0.8-0.4c0.2-0.1,0.4-0.3,0.6-0.5s0.3-0.3,0.3-0.5c0.1-0.1,0.1-0.3,0.1-0.3
				c0,0,0-0.1,0-0.1c0-0.1,0-0.2-0.1-0.3c0-0.1-0.1-0.2-0.2-0.3c-0.1-0.1-0.3-0.1-0.6-0.1C383.4,303.9,383,304,382.6,304.2z"/>
			<path d="M396.8,302.3l-3.5,3.7l3.5,2.5l-1.7,2.9l-2.7-2.3l0.1,1.7l-3.5,0.6l-0.9-10.7l3.9-0.7l0.1,2.4l2-3.1L396.8,302.3z"/>
			<path d="M404.6,299.3l0.1,10.8l-3.5,0.6l-0.6-10.7L404.6,299.3z"/>
			<path d="M405.7,299.3l5.4,3.9l-0.2-4.4l4,0l0,10.2l-5.3-2.2l0.4,3.1l-3.8,0.5L405.7,299.3z"/>
			<path d="M426.4,298c0.5,0.1,1,0.4,1.3,0.7c0.3,0.3,0.6,0.7,0.7,1.2s0.2,1,0.1,1.5c-0.1,0.5-0.2,1.1-0.4,1.7s-0.6,1.1-1,1.6
				c-0.4,0.5-0.9,0.9-1.5,1.3c-0.6,0.4-1.2,0.7-2,0.9l0.1,2.4l-3.2-0.1l-0.9-10.4c1.7-0.3,3.3-0.6,4.8-0.8
				C425.3,297.9,425.9,297.9,426.4,298z M425,302.1c0,0,0-0.1,0-0.1c0-0.1,0-0.2-0.1-0.3c0-0.1-0.1-0.2-0.2-0.3
				c-0.1-0.1-0.3-0.1-0.6-0.1c-0.3,0-0.6,0.1-1,0.3l0,2.1c0.3-0.1,0.6-0.2,0.8-0.4s0.4-0.3,0.6-0.5s0.3-0.3,0.3-0.5
				C424.9,302.3,425,302.2,425,302.1z"/>
			<path d="M437.4,306.2l-1.9,2.5l-3.4-2.2l0.1,2.3l-3.2-0.1l-0.9-10.4c1.7-0.3,3.3-0.6,4.8-0.8c0.8-0.1,1.5-0.1,2.1,0.1
				c0.6,0.2,1,0.5,1.3,0.8c0.3,0.4,0.5,0.8,0.6,1.4c0.1,0.5,0,1.1-0.1,1.7c-0.2,0.6-0.4,1.1-0.8,1.7c-0.4,0.6-0.9,1.1-1.5,1.5
				L437.4,306.2z M431.6,301l0,2.1c0.3-0.1,0.6-0.2,0.8-0.4c0.2-0.1,0.4-0.3,0.6-0.5c0.1-0.2,0.3-0.3,0.3-0.5
				c0.1-0.1,0.1-0.3,0.1-0.3c0,0,0-0.1,0-0.1c0-0.1,0-0.2-0.1-0.3c0-0.1-0.1-0.2-0.2-0.3s-0.3-0.1-0.6-0.1
				C432.3,300.7,432,300.9,431.6,301z"/>
			<path d="M445.7,306.5c-0.3,0.3-0.7,0.6-1.1,0.9c-0.4,0.3-0.9,0.5-1.4,0.6c-0.5,0.2-1.1,0.3-1.6,0.3c-0.6,0-1.1,0-1.6-0.2
				c-0.5-0.1-1-0.4-1.5-0.7s-0.8-0.8-1.1-1.4c-0.3-0.6-0.6-1.3-0.7-1.9c-0.1-0.7-0.1-1.3,0-1.9c0.1-0.6,0.3-1.2,0.6-1.8
				c0.3-0.6,0.6-1.1,1.1-1.5s0.9-0.9,1.4-1.2c0.5-0.4,1.1-0.6,1.8-0.8c0.6-0.2,1.2-0.3,1.7-0.2c0.5,0,1,0.1,1.5,0.3
				c0.4,0.2,0.8,0.4,1.1,0.6c0.3,0.3,0.6,0.5,0.7,0.8c0.3,0.5,0.6,1.1,0.7,1.8c0.2,0.7,0.3,1.4,0.2,2.1c0,0.7-0.2,1.5-0.5,2.2
				C446.7,305.1,446.3,305.8,445.7,306.5z M443.6,300.9c-0.2-0.3-0.4-0.5-0.6-0.6c-0.3-0.1-0.5-0.1-0.8-0.1c-0.3,0-0.6,0.1-0.8,0.3
				c-0.3,0.2-0.5,0.4-0.8,0.7c-0.2,0.3-0.4,0.6-0.5,1c-0.1,0.4-0.2,0.8-0.2,1.3c0,0.4,0.1,0.8,0.2,1c0.1,0.3,0.3,0.4,0.5,0.6
				s0.4,0.2,0.7,0.2c0.3,0,0.5-0.1,0.8-0.2c0.2-0.1,0.5-0.3,0.7-0.4c0.2-0.2,0.4-0.4,0.5-0.6c0.2-0.4,0.3-0.7,0.4-1
				c0.1-0.3,0.1-0.6,0.1-0.8c0-0.2,0-0.5-0.1-0.7C443.7,301.3,443.7,301.1,443.6,300.9z"/>
			<path d="M454.8,300.4c-0.1-0.3-0.4-0.5-0.6-0.6c-0.3-0.1-0.6-0.2-0.9-0.1c-0.3,0-0.7,0.1-1,0.3c-0.3,0.2-0.7,0.4-0.9,0.7
				c-0.3,0.3-0.5,0.6-0.7,1c-0.2,0.4-0.2,0.8-0.2,1.3c0,0.4,0.1,0.8,0.3,1c0.2,0.3,0.4,0.4,0.6,0.5c0.2,0.1,0.5,0.1,0.8,0.1
				c0.3,0,0.5-0.1,0.8-0.3c0.3-0.1,0.5-0.3,0.7-0.5c0.2-0.2,0.4-0.5,0.4-0.7l-1.9,0.5l0.1-2.2l5.8-1.1c0.1,0.6,0.1,1.1,0,1.7
				c-0.1,0.6-0.2,1.1-0.4,1.5c-0.2,0.5-0.4,0.9-0.6,1.3c-0.2,0.4-0.4,0.7-0.6,0.9c-0.2,0.2-0.2,0.3-0.3,0.3
				c-0.3,0.3-0.7,0.6-1.1,0.9c-0.4,0.3-0.9,0.5-1.4,0.6c-0.5,0.2-1.1,0.2-1.6,0.3c-0.6,0-1.1,0-1.6-0.2c-0.5-0.1-1-0.4-1.5-0.7
				c-0.5-0.3-0.8-0.8-1.1-1.4c-0.3-0.6-0.6-1.3-0.6-2c-0.1-0.7-0.1-1.3,0-1.9c0.1-0.6,0.3-1.2,0.6-1.8c0.3-0.6,0.7-1.1,1.1-1.6
				c0.4-0.5,0.9-0.9,1.5-1.2c0.6-0.3,1.1-0.6,1.8-0.8c0,0,0.1,0,0.3-0.1c0.2,0,0.4-0.1,0.8-0.1c0.3,0,0.7,0,1.1,0.1s0.9,0.2,1.4,0.5
				c0.5,0.2,1,0.6,1.5,1L454.8,300.4z"/>
			<path d="M467.3,304.3l-1.9,2.5l-3.4-2.2l0.1,2.3l-3.2-0.1l-0.9-10.4c1.7-0.3,3.3-0.6,4.8-0.8c0.8-0.1,1.5-0.1,2.1,0.1
				c0.6,0.2,1,0.5,1.3,0.8c0.3,0.4,0.5,0.8,0.6,1.4c0.1,0.5,0,1.1-0.1,1.7c-0.2,0.6-0.4,1.1-0.8,1.7c-0.4,0.6-0.9,1.1-1.5,1.5
				L467.3,304.3z M461.5,299.1l0,2.1c0.3-0.1,0.6-0.2,0.8-0.4c0.2-0.1,0.4-0.3,0.6-0.5c0.1-0.2,0.3-0.3,0.3-0.5
				c0.1-0.1,0.1-0.3,0.1-0.3c0,0,0-0.1,0-0.1c0-0.1,0-0.2-0.1-0.3c0-0.1-0.1-0.2-0.2-0.3c-0.1-0.1-0.3-0.1-0.6-0.1
				C462.2,298.8,461.9,298.9,461.5,299.1z"/>
			<path d="M467,295.9l7.3-1l-0.2,3.4l-3.3,0.4l0,0.6l2.4-0.3l-0.1,2.3l-2.2,0.3l0,0.7l3.8-0.6l0.2,3.7l-7.1,0.8L467,295.9z"/>
			<path d="M480.2,298.7c0.3,0.1,0.6,0.2,0.9,0.4c0.3,0.1,0.6,0.3,0.8,0.5c0.2,0.2,0.5,0.5,0.6,0.8c0.2,0.3,0.3,0.7,0.3,1.1
				c0.1,0.6,0,1.2-0.2,1.7c-0.2,0.5-0.5,0.9-0.9,1.3c-0.4,0.4-0.9,0.6-1.5,0.9c-0.6,0.2-1.2,0.4-1.9,0.4c-0.3,0-0.6,0-1,0
				c-0.3,0-0.7-0.1-1-0.1c-0.3-0.1-0.6-0.1-0.9-0.2c-0.3-0.1-0.6-0.2-0.9-0.3l0.8-2.9c0.1,0,0.3,0.1,0.5,0.2
				c0.2,0.1,0.4,0.1,0.6,0.2c0.2,0.1,0.4,0.1,0.7,0.1c0.2,0,0.5,0,0.7,0c0.3,0,0.6-0.1,0.8-0.2c0.2-0.1,0.3-0.3,0.3-0.5
				c0-0.1-0.1-0.3-0.3-0.3c-0.2-0.1-0.3-0.1-0.5-0.2c-0.1,0-0.3-0.1-0.5-0.1c-0.2,0-0.5-0.1-0.7-0.2c-0.3-0.1-0.5-0.2-0.8-0.3
				c-0.3-0.1-0.5-0.3-0.7-0.5c-0.2-0.2-0.4-0.4-0.6-0.7c-0.2-0.3-0.2-0.6-0.3-1c-0.1-0.6,0-1.2,0.2-1.7c0.2-0.5,0.5-0.9,0.9-1.3
				c0.4-0.4,0.8-0.7,1.3-0.9c0.5-0.2,1.1-0.4,1.7-0.4c0.6-0.1,1.1-0.1,1.7,0c0.6,0,1.1,0.2,1.6,0.3l-0.6,3.1c-0.4-0.1-0.7-0.2-1-0.3
				c-0.3-0.1-0.6-0.1-1-0.2c-0.1,0-0.3,0-0.5,0c-0.2,0-0.4,0-0.5,0.1c-0.2,0.1-0.3,0.1-0.5,0.2c-0.1,0.1-0.2,0.2-0.2,0.4
				c0,0.1,0,0.1,0.1,0.2c0.1,0,0.2,0.1,0.2,0.1c0.1,0,0.2,0,0.3,0c0.1,0,0.2,0,0.2,0c0.3,0,0.5,0.1,0.8,0.1
				C479.7,298.5,480,298.6,480.2,298.7z"/>
			<path d="M488.1,298.2c0.3,0.1,0.6,0.2,0.9,0.4c0.3,0.1,0.6,0.3,0.8,0.5c0.2,0.2,0.5,0.5,0.6,0.8c0.2,0.3,0.3,0.7,0.3,1.1
				c0.1,0.6,0,1.2-0.2,1.7c-0.2,0.5-0.5,0.9-0.9,1.3c-0.4,0.4-0.9,0.6-1.5,0.9c-0.6,0.2-1.2,0.4-1.9,0.4c-0.3,0-0.6,0-1,0
				c-0.3,0-0.7-0.1-1-0.1c-0.3-0.1-0.6-0.1-0.9-0.2c-0.3-0.1-0.6-0.2-0.9-0.3l0.8-2.9c0.1,0,0.3,0.1,0.5,0.2
				c0.2,0.1,0.4,0.1,0.6,0.2c0.2,0.1,0.4,0.1,0.7,0.1c0.2,0,0.5,0,0.7,0c0.3,0,0.6-0.1,0.8-0.2c0.2-0.1,0.3-0.3,0.3-0.5
				c0-0.1-0.1-0.3-0.3-0.3c-0.2-0.1-0.3-0.1-0.5-0.2c-0.1,0-0.3-0.1-0.5-0.1c-0.2,0-0.5-0.1-0.7-0.2c-0.3-0.1-0.5-0.2-0.8-0.3
				c-0.3-0.1-0.5-0.3-0.7-0.5c-0.2-0.2-0.4-0.4-0.6-0.7c-0.2-0.3-0.2-0.6-0.3-1c-0.1-0.6,0-1.2,0.2-1.7c0.2-0.5,0.5-0.9,0.9-1.3
				c0.4-0.4,0.8-0.7,1.3-0.9c0.5-0.2,1.1-0.4,1.7-0.4c0.6-0.1,1.1-0.1,1.7,0c0.6,0,1.1,0.2,1.6,0.3l-0.6,3.1c-0.4-0.1-0.7-0.2-1-0.3
				c-0.3-0.1-0.6-0.1-1-0.2c-0.1,0-0.3,0-0.5,0c-0.2,0-0.4,0-0.5,0.1c-0.2,0.1-0.3,0.1-0.5,0.2c-0.1,0.1-0.2,0.2-0.2,0.4
				c0,0.1,0,0.1,0.1,0.2c0.1,0,0.2,0.1,0.2,0.1c0.1,0,0.2,0,0.3,0c0.1,0,0.2,0,0.2,0c0.3,0,0.5,0.1,0.8,0.1
				C487.6,298,487.9,298.1,488.1,298.2z"/>
			<path d="M514.6,293.4l3.5-1.8l1.7,4.3l2.2-3.9l2.2,3.4l1.3-4.9l3.2,2l-2.7,10l-3.5-3.2l-3.1,4.5L514.6,293.4z"/>
			<path d="M537.3,300.6c-0.3,0.3-0.7,0.6-1.1,0.9c-0.4,0.3-0.9,0.5-1.4,0.6s-1.1,0.3-1.6,0.3c-0.6,0-1.1,0-1.6-0.2s-1-0.4-1.5-0.7
				s-0.8-0.8-1.1-1.4c-0.3-0.6-0.6-1.3-0.7-1.9c-0.1-0.7-0.1-1.3,0-1.9c0.1-0.6,0.3-1.2,0.6-1.8c0.3-0.6,0.6-1.1,1.1-1.5
				s0.9-0.9,1.4-1.2c0.5-0.4,1.1-0.6,1.8-0.8c0.6-0.2,1.2-0.3,1.7-0.2c0.5,0,1,0.1,1.5,0.3c0.4,0.2,0.8,0.4,1.1,0.6s0.6,0.5,0.7,0.8
				c0.3,0.5,0.6,1.1,0.7,1.8c0.2,0.7,0.3,1.4,0.2,2.1c0,0.7-0.2,1.5-0.5,2.2C538.4,299.2,537.9,299.9,537.3,300.6z M535.2,295
				c-0.2-0.3-0.4-0.5-0.6-0.6c-0.3-0.1-0.5-0.1-0.8-0.1c-0.3,0-0.6,0.1-0.8,0.3c-0.3,0.2-0.5,0.4-0.8,0.7c-0.2,0.3-0.4,0.6-0.5,1
				c-0.1,0.4-0.2,0.8-0.2,1.3c0,0.4,0.1,0.8,0.2,1c0.1,0.3,0.3,0.4,0.5,0.6s0.4,0.2,0.7,0.2c0.3,0,0.5-0.1,0.8-0.2
				c0.2-0.1,0.5-0.3,0.7-0.4c0.2-0.2,0.4-0.4,0.5-0.6c0.2-0.4,0.3-0.7,0.4-1c0.1-0.3,0.1-0.6,0.1-0.8c0-0.2,0-0.5-0.1-0.7
				C535.3,295.4,535.3,295.2,535.2,295z"/>
			<path d="M548.1,299.1l-1.9,2.5l-3.4-2.2l0.1,2.3l-3.2-0.1l-0.9-10.4c1.7-0.3,3.3-0.6,4.8-0.8c0.8-0.1,1.5-0.1,2.1,0.1
				c0.6,0.2,1,0.5,1.3,0.8c0.3,0.4,0.5,0.8,0.6,1.4c0.1,0.5,0,1.1-0.1,1.7c-0.2,0.6-0.4,1.1-0.8,1.7c-0.4,0.6-0.9,1.1-1.5,1.5
				L548.1,299.1z M542.3,293.9l0,2.1c0.3-0.1,0.6-0.2,0.8-0.4c0.2-0.1,0.4-0.3,0.6-0.5c0.1-0.2,0.3-0.3,0.3-0.5
				c0.1-0.1,0.1-0.3,0.1-0.3c0,0,0-0.1,0-0.1c0-0.1,0-0.2-0.1-0.3c0-0.1-0.1-0.2-0.2-0.3c-0.1-0.1-0.3-0.1-0.6-0.1
				C543,293.6,542.7,293.7,542.3,293.9z"/>
			<path d="M556.4,292l-3.5,3.7l3.5,2.5l-1.7,2.9l-2.7-2.3l0.1,1.7l-3.5,0.6l-0.9-10.7l3.9-0.7l0.1,2.4l2-3.1L556.4,292z"/>
			<path d="M564.3,289l0.1,10.8l-3.5,0.6l-0.6-10.7L564.3,289z"/>
			<path d="M565.3,289l5.4,3.9l-0.2-4.4l4,0l0,10.2l-5.3-2.2l0.4,3.1l-3.8,0.5L565.3,289z"/>
			<path d="M586.1,287.7c0.5,0.1,1,0.4,1.3,0.7c0.3,0.3,0.6,0.7,0.7,1.2c0.1,0.5,0.2,1,0.1,1.5s-0.2,1.1-0.4,1.7
				c-0.2,0.6-0.6,1.1-1,1.6c-0.4,0.5-0.9,0.9-1.5,1.3c-0.6,0.4-1.2,0.7-2,0.9l0.1,2.4l-3.2-0.1l-0.9-10.4c1.7-0.3,3.3-0.6,4.8-0.8
				C584.9,287.6,585.5,287.6,586.1,287.7z M584.7,291.8c0,0,0-0.1,0-0.1c0-0.1,0-0.2-0.1-0.3c0-0.1-0.1-0.2-0.2-0.3
				c-0.1-0.1-0.3-0.1-0.6-0.1c-0.3,0-0.6,0.1-1,0.3l0,2.1c0.3-0.1,0.6-0.2,0.8-0.4c0.2-0.1,0.4-0.3,0.6-0.5s0.3-0.3,0.3-0.5
				C584.6,292,584.6,291.9,584.7,291.8z"/>
			<path d="M597.1,295.9l-1.9,2.5l-3.4-2.2l0.1,2.3l-3.2-0.1l-0.9-10.4c1.7-0.3,3.3-0.6,4.8-0.8c0.8-0.1,1.5-0.1,2.1,0.1
				c0.6,0.2,1,0.5,1.3,0.8c0.3,0.4,0.5,0.8,0.6,1.4c0.1,0.5,0,1.1-0.1,1.7c-0.2,0.6-0.4,1.1-0.8,1.7c-0.4,0.6-0.9,1.1-1.5,1.5
				L597.1,295.9z M591.2,290.8l0,2.1c0.3-0.1,0.6-0.2,0.8-0.4c0.2-0.1,0.4-0.3,0.6-0.5c0.1-0.2,0.3-0.3,0.3-0.5
				c0.1-0.1,0.1-0.3,0.1-0.3c0,0,0-0.1,0-0.1c0-0.1,0-0.2-0.1-0.3c0-0.1-0.1-0.2-0.2-0.3s-0.3-0.1-0.6-0.1
				C592,290.5,591.6,290.6,591.2,290.8z"/>
			<path d="M605.3,296.2c-0.3,0.3-0.7,0.6-1.1,0.9c-0.4,0.3-0.9,0.5-1.4,0.6c-0.5,0.2-1.1,0.3-1.6,0.3c-0.6,0-1.1,0-1.6-0.2
				c-0.5-0.1-1-0.4-1.5-0.7c-0.4-0.3-0.8-0.8-1.1-1.4c-0.3-0.6-0.6-1.3-0.7-1.9c-0.1-0.7-0.1-1.3,0-1.9c0.1-0.6,0.3-1.2,0.6-1.8
				c0.3-0.6,0.6-1.1,1.1-1.5c0.4-0.5,0.9-0.9,1.5-1.2c0.5-0.4,1.1-0.6,1.8-0.8c0.6-0.2,1.2-0.3,1.7-0.2c0.5,0,1,0.1,1.5,0.3
				c0.4,0.2,0.8,0.4,1.1,0.6c0.3,0.3,0.6,0.5,0.7,0.8c0.3,0.5,0.6,1.1,0.7,1.8c0.2,0.7,0.3,1.4,0.2,2.1c0,0.7-0.2,1.5-0.5,2.2
				S605.9,295.5,605.3,296.2z M603.2,290.7c-0.2-0.3-0.4-0.5-0.6-0.6c-0.3-0.1-0.5-0.1-0.8-0.1c-0.3,0-0.6,0.1-0.8,0.3
				c-0.3,0.2-0.5,0.4-0.8,0.7c-0.2,0.3-0.4,0.6-0.5,1c-0.1,0.4-0.2,0.8-0.2,1.3c0,0.4,0.1,0.8,0.2,1c0.1,0.3,0.3,0.4,0.5,0.6
				c0.2,0.1,0.4,0.2,0.7,0.2c0.3,0,0.5-0.1,0.8-0.2c0.2-0.1,0.5-0.3,0.7-0.4c0.2-0.2,0.4-0.4,0.5-0.6c0.2-0.4,0.3-0.7,0.4-1
				c0.1-0.3,0.1-0.6,0.1-0.8c0-0.2,0-0.5-0.1-0.7C603.3,291,603.3,290.8,603.2,290.7z"/>
			<path d="M614.4,290.1c-0.1-0.3-0.4-0.5-0.6-0.6c-0.3-0.1-0.6-0.2-0.9-0.1c-0.3,0-0.7,0.1-1,0.3c-0.3,0.2-0.7,0.4-0.9,0.7
				c-0.3,0.3-0.5,0.6-0.7,1c-0.2,0.4-0.2,0.8-0.2,1.3c0,0.4,0.1,0.8,0.3,1c0.2,0.3,0.4,0.4,0.6,0.5c0.2,0.1,0.5,0.1,0.8,0.1
				c0.3,0,0.5-0.1,0.8-0.3c0.3-0.1,0.5-0.3,0.7-0.5c0.2-0.2,0.4-0.5,0.4-0.7l-1.9,0.5l0.1-2.2l5.8-1.1c0.1,0.6,0.1,1.1,0,1.7
				c-0.1,0.6-0.2,1.1-0.4,1.5c-0.2,0.5-0.4,0.9-0.6,1.3c-0.2,0.4-0.4,0.7-0.6,0.9c-0.2,0.2-0.2,0.3-0.3,0.3
				c-0.3,0.3-0.7,0.6-1.1,0.9c-0.4,0.3-0.9,0.5-1.4,0.6c-0.5,0.2-1.1,0.2-1.6,0.3c-0.6,0-1.1,0-1.6-0.2c-0.5-0.1-1-0.4-1.5-0.7
				s-0.8-0.8-1.1-1.4c-0.3-0.6-0.6-1.3-0.6-2c-0.1-0.7-0.1-1.3,0-1.9c0.1-0.6,0.3-1.2,0.6-1.8c0.3-0.6,0.7-1.1,1.1-1.6
				c0.4-0.5,0.9-0.9,1.5-1.2c0.6-0.3,1.2-0.6,1.8-0.8c0,0,0.1,0,0.3-0.1c0.2,0,0.4-0.1,0.8-0.1c0.3,0,0.7,0,1.1,0.1s0.9,0.2,1.4,0.5
				c0.5,0.2,1,0.6,1.5,1L614.4,290.1z"/>
			<path d="M627,294l-1.9,2.5l-3.4-2.2l0.1,2.3l-3.2-0.1l-0.9-10.4c1.7-0.3,3.3-0.6,4.8-0.8c0.8-0.1,1.5-0.1,2.1,0.1
				c0.6,0.2,1,0.5,1.3,0.8c0.3,0.4,0.5,0.8,0.6,1.4c0.1,0.5,0,1.1-0.1,1.7c-0.2,0.6-0.4,1.1-0.8,1.7c-0.4,0.6-0.9,1.1-1.5,1.5
				L627,294z M621.1,288.8l0,2.1c0.3-0.1,0.6-0.2,0.8-0.4c0.2-0.1,0.4-0.3,0.6-0.5c0.1-0.2,0.3-0.3,0.3-0.5c0.1-0.1,0.1-0.3,0.1-0.3
				c0,0,0-0.1,0-0.1c0-0.1,0-0.2-0.1-0.3c0-0.1-0.1-0.2-0.2-0.3s-0.3-0.1-0.6-0.1C621.9,288.5,621.6,288.6,621.1,288.8z"/>
			<path d="M626.6,285.6l7.3-1l-0.2,3.4l-3.3,0.4l0,0.6l2.4-0.3l-0.1,2.3l-2.2,0.3l0,0.7l3.8-0.6l0.2,3.7l-7.1,0.8L626.6,285.6z"/>
			<path d="M639.9,288.4c0.3,0.1,0.6,0.2,0.9,0.4c0.3,0.1,0.6,0.3,0.8,0.5c0.2,0.2,0.5,0.5,0.6,0.8c0.2,0.3,0.3,0.7,0.3,1.1
				c0.1,0.6,0,1.2-0.2,1.7c-0.2,0.5-0.5,0.9-0.9,1.3c-0.4,0.4-0.9,0.6-1.5,0.9c-0.6,0.2-1.2,0.4-1.9,0.4c-0.3,0-0.6,0-1,0
				c-0.3,0-0.7-0.1-1-0.1c-0.3-0.1-0.6-0.1-0.9-0.2c-0.3-0.1-0.6-0.2-0.9-0.3l0.8-2.9c0.1,0,0.3,0.1,0.5,0.2
				c0.2,0.1,0.4,0.1,0.6,0.2c0.2,0.1,0.4,0.1,0.7,0.1c0.2,0,0.5,0,0.7,0c0.3,0,0.6-0.1,0.8-0.2c0.2-0.1,0.3-0.3,0.3-0.5
				c0-0.1-0.1-0.3-0.3-0.3c-0.2-0.1-0.3-0.1-0.5-0.2c-0.1,0-0.3-0.1-0.5-0.1c-0.2,0-0.5-0.1-0.7-0.2c-0.3-0.1-0.5-0.2-0.8-0.3
				c-0.3-0.1-0.5-0.3-0.7-0.5c-0.2-0.2-0.4-0.4-0.6-0.7c-0.2-0.3-0.2-0.6-0.3-1c-0.1-0.6,0-1.2,0.2-1.7c0.2-0.5,0.5-0.9,0.9-1.3
				c0.4-0.4,0.8-0.7,1.3-0.9c0.5-0.2,1.1-0.4,1.7-0.4c0.6-0.1,1.1-0.1,1.7,0c0.6,0,1.1,0.2,1.6,0.3l-0.6,3.1c-0.4-0.1-0.7-0.2-1-0.3
				c-0.3-0.1-0.6-0.1-1-0.2c-0.1,0-0.3,0-0.5,0c-0.2,0-0.4,0-0.5,0.1c-0.2,0.1-0.3,0.1-0.5,0.2c-0.1,0.1-0.2,0.2-0.2,0.4
				c0,0.1,0,0.1,0.1,0.2c0.1,0,0.2,0.1,0.2,0.1c0.1,0,0.2,0,0.3,0c0.1,0,0.2,0,0.2,0c0.3,0,0.5,0.1,0.8,0.1
				C639.4,288.2,639.6,288.3,639.9,288.4z"/>
			<path d="M647.7,287.9c0.3,0.1,0.6,0.2,0.9,0.4c0.3,0.1,0.6,0.3,0.8,0.5c0.2,0.2,0.5,0.5,0.6,0.8c0.2,0.3,0.3,0.7,0.3,1.1
				c0.1,0.6,0,1.2-0.2,1.7c-0.2,0.5-0.5,0.9-0.9,1.3c-0.4,0.4-0.9,0.6-1.5,0.9c-0.6,0.2-1.2,0.4-1.9,0.4c-0.3,0-0.6,0-1,0
				c-0.3,0-0.7-0.1-1-0.1c-0.3-0.1-0.6-0.1-0.9-0.2c-0.3-0.1-0.6-0.2-0.9-0.3l0.8-2.9c0.1,0,0.3,0.1,0.5,0.2
				c0.2,0.1,0.4,0.1,0.6,0.2c0.2,0.1,0.4,0.1,0.7,0.1c0.2,0,0.5,0,0.7,0c0.3,0,0.6-0.1,0.8-0.2c0.2-0.1,0.3-0.3,0.3-0.5
				c0-0.1-0.1-0.3-0.3-0.3c-0.2-0.1-0.3-0.1-0.5-0.2c-0.1,0-0.3-0.1-0.5-0.1c-0.2,0-0.5-0.1-0.7-0.2c-0.3-0.1-0.5-0.2-0.8-0.3
				c-0.3-0.1-0.5-0.3-0.7-0.5c-0.2-0.2-0.4-0.4-0.6-0.7c-0.2-0.3-0.2-0.6-0.3-1c-0.1-0.6,0-1.2,0.2-1.7c0.2-0.5,0.5-0.9,0.9-1.3
				c0.4-0.4,0.8-0.7,1.3-0.9c0.5-0.2,1.1-0.4,1.7-0.4c0.6-0.1,1.1-0.1,1.7,0c0.6,0,1.1,0.2,1.6,0.3L649,287c-0.4-0.1-0.7-0.2-1-0.3
				c-0.3-0.1-0.6-0.1-1-0.2c-0.1,0-0.3,0-0.5,0c-0.2,0-0.4,0-0.5,0.1c-0.2,0.1-0.3,0.1-0.5,0.2c-0.1,0.1-0.2,0.2-0.2,0.4
				c0,0.1,0,0.1,0.1,0.2c0.1,0,0.2,0.1,0.2,0.1c0.1,0,0.2,0,0.3,0c0.1,0,0.2,0,0.2,0c0.3,0,0.5,0.1,0.8,0.1
				C647.3,287.7,647.5,287.8,647.7,287.9z"/>
			<path d="M674.2,283.1l3.5-1.8l1.7,4.3l2.2-3.9l2.2,3.4l1.3-4.9l3.2,2l-2.7,10l-3.5-3.2l-3.1,4.5L674.2,283.1z"/>
			<path d="M697,290.3c-0.3,0.3-0.7,0.6-1.1,0.9c-0.4,0.3-0.9,0.5-1.4,0.6c-0.5,0.2-1.1,0.3-1.6,0.3c-0.6,0-1.1,0-1.6-0.2
				c-0.5-0.1-1-0.4-1.5-0.7c-0.4-0.3-0.8-0.8-1.1-1.4c-0.3-0.6-0.6-1.3-0.7-1.9c-0.1-0.7-0.1-1.3,0-1.9c0.1-0.6,0.3-1.2,0.6-1.8
				c0.3-0.6,0.6-1.1,1.1-1.5c0.4-0.5,0.9-0.9,1.4-1.2c0.5-0.4,1.1-0.6,1.8-0.8c0.6-0.2,1.2-0.3,1.7-0.2c0.5,0,1,0.1,1.5,0.3
				c0.4,0.2,0.8,0.4,1.1,0.6c0.3,0.3,0.6,0.5,0.7,0.8c0.3,0.5,0.6,1.1,0.7,1.8c0.2,0.7,0.3,1.4,0.2,2.1c0,0.7-0.2,1.5-0.5,2.2
				C698,288.9,697.6,289.6,697,290.3z M694.8,284.8c-0.2-0.3-0.4-0.5-0.6-0.6c-0.3-0.1-0.5-0.1-0.8-0.1c-0.3,0-0.6,0.1-0.8,0.3
				c-0.3,0.2-0.5,0.4-0.8,0.7c-0.2,0.3-0.4,0.6-0.5,1c-0.1,0.4-0.2,0.8-0.2,1.3c0,0.4,0.1,0.8,0.2,1c0.1,0.3,0.3,0.4,0.5,0.6
				c0.2,0.1,0.4,0.2,0.7,0.2c0.3,0,0.5-0.1,0.8-0.2c0.2-0.1,0.5-0.3,0.7-0.4c0.2-0.2,0.4-0.4,0.5-0.6c0.2-0.4,0.3-0.7,0.4-1
				c0.1-0.3,0.1-0.6,0.1-0.8c0-0.2,0-0.5-0.1-0.7C695,285.1,694.9,284.9,694.8,284.8z"/>
			<path d="M707.8,288.8l-1.9,2.5l-3.4-2.2l0.1,2.3l-3.2-0.1l-0.9-10.4c1.7-0.3,3.3-0.6,4.8-0.8c0.8-0.1,1.5-0.1,2.1,0.1
				c0.6,0.2,1,0.5,1.3,0.8c0.3,0.4,0.5,0.8,0.6,1.4c0.1,0.5,0,1.1-0.1,1.7c-0.2,0.6-0.4,1.1-0.8,1.7c-0.4,0.6-0.9,1.1-1.5,1.5
				L707.8,288.8z M701.9,283.6l0,2.1c0.3-0.1,0.6-0.2,0.8-0.4c0.2-0.1,0.4-0.3,0.6-0.5c0.1-0.2,0.3-0.3,0.3-0.5
				c0.1-0.1,0.1-0.3,0.1-0.3c0,0,0-0.1,0-0.1c0-0.1,0-0.2-0.1-0.3c0-0.1-0.1-0.2-0.2-0.3c-0.1-0.1-0.3-0.1-0.6-0.1
				C702.7,283.3,702.3,283.4,701.9,283.6z"/>
			<path d="M716.1,281.7l-3.5,3.7l3.5,2.5l-1.7,2.9l-2.7-2.3l0.1,1.7l-3.5,0.6l-0.9-10.7l3.9-0.7l0.1,2.4l2-3.1L716.1,281.7z"/>
			<path d="M723.9,278.7l0.1,10.8l-3.5,0.6l-0.6-10.7L723.9,278.7z"/>
			<path d="M725,278.7l5.4,3.9l-0.2-4.4l4,0l0,10.2l-5.3-2.2l0.4,3.1l-3.8,0.5L725,278.7z"/>
			<path d="M745.7,277.5c0.5,0.1,1,0.4,1.3,0.7c0.3,0.3,0.6,0.7,0.7,1.2s0.2,1,0.1,1.5c-0.1,0.5-0.2,1.1-0.4,1.7
				c-0.2,0.6-0.6,1.1-1,1.6c-0.4,0.5-0.9,0.9-1.5,1.3c-0.6,0.4-1.2,0.7-2,0.9l0.1,2.4l-3.2-0.1l-0.9-10.4c1.7-0.3,3.3-0.6,4.8-0.8
				C744.5,277.3,745.2,277.3,745.7,277.5z M744.3,281.5c0,0,0-0.1,0-0.1c0-0.1,0-0.2-0.1-0.3c0-0.1-0.1-0.2-0.2-0.3
				c-0.1-0.1-0.3-0.1-0.6-0.1c-0.3,0-0.6,0.1-1,0.3l0,2.1c0.3-0.1,0.6-0.2,0.8-0.4c0.2-0.1,0.4-0.3,0.6-0.5c0.1-0.2,0.3-0.3,0.3-0.5
				C744.2,281.7,744.3,281.6,744.3,281.5z"/>
			<path d="M756.7,285.6l-1.9,2.5l-3.4-2.2l0.1,2.3l-3.2-0.1l-0.9-10.4c1.7-0.3,3.3-0.6,4.8-0.8c0.8-0.1,1.5-0.1,2.1,0.1
				c0.6,0.2,1,0.5,1.3,0.8c0.3,0.4,0.5,0.8,0.6,1.4c0.1,0.5,0,1.1-0.1,1.7c-0.2,0.6-0.4,1.1-0.8,1.7c-0.4,0.6-0.9,1.1-1.5,1.5
				L756.7,285.6z M750.9,280.5l0,2.1c0.3-0.1,0.6-0.2,0.8-0.4c0.2-0.1,0.4-0.3,0.6-0.5s0.3-0.3,0.3-0.5c0.1-0.1,0.1-0.3,0.1-0.3
				c0,0,0-0.1,0-0.1c0-0.1,0-0.2-0.1-0.3c0-0.1-0.1-0.2-0.2-0.3s-0.3-0.1-0.6-0.1C751.6,280.2,751.3,280.3,750.9,280.5z"/>
			<path d="M765,285.9c-0.3,0.3-0.7,0.6-1.1,0.9c-0.4,0.3-0.9,0.5-1.4,0.6c-0.5,0.2-1.1,0.3-1.6,0.3c-0.6,0-1.1,0-1.6-0.2
				c-0.5-0.1-1-0.4-1.5-0.7s-0.8-0.8-1.1-1.4c-0.3-0.6-0.6-1.3-0.7-1.9c-0.1-0.7-0.1-1.3,0-1.9c0.1-0.6,0.3-1.2,0.6-1.8
				c0.3-0.6,0.6-1.1,1.1-1.5s0.9-0.9,1.5-1.2c0.5-0.4,1.1-0.6,1.8-0.8c0.6-0.2,1.2-0.3,1.7-0.2c0.5,0,1,0.1,1.5,0.3
				c0.4,0.2,0.8,0.4,1.1,0.6c0.3,0.3,0.6,0.5,0.7,0.8c0.3,0.5,0.6,1.1,0.7,1.8c0.2,0.7,0.3,1.4,0.2,2.1c0,0.7-0.2,1.5-0.5,2.2
				S765.6,285.2,765,285.9z M762.9,280.4c-0.2-0.3-0.4-0.5-0.6-0.6c-0.3-0.1-0.5-0.1-0.8-0.1c-0.3,0-0.6,0.1-0.8,0.3
				c-0.3,0.2-0.5,0.4-0.8,0.7c-0.2,0.3-0.4,0.6-0.5,1c-0.1,0.4-0.2,0.8-0.2,1.3c0,0.4,0.1,0.8,0.2,1c0.1,0.3,0.3,0.4,0.5,0.6
				s0.4,0.2,0.7,0.2c0.3,0,0.5-0.1,0.8-0.2c0.2-0.1,0.5-0.3,0.7-0.4c0.2-0.2,0.4-0.4,0.5-0.6c0.2-0.4,0.3-0.7,0.4-1s0.1-0.6,0.1-0.8
				c0-0.2,0-0.5-0.1-0.7C763,280.7,762.9,280.5,762.9,280.4z"/>
			<path d="M774.1,279.8c-0.1-0.3-0.4-0.5-0.6-0.6c-0.3-0.1-0.6-0.2-0.9-0.1c-0.3,0-0.7,0.1-1,0.3c-0.3,0.2-0.7,0.4-0.9,0.7
				c-0.3,0.3-0.5,0.6-0.7,1c-0.2,0.4-0.2,0.8-0.2,1.3c0,0.4,0.1,0.8,0.3,1c0.2,0.3,0.4,0.4,0.6,0.5c0.2,0.1,0.5,0.1,0.8,0.1
				c0.3,0,0.5-0.1,0.8-0.3c0.3-0.1,0.5-0.3,0.7-0.5c0.2-0.2,0.4-0.5,0.4-0.7l-1.9,0.5l0.1-2.2l5.8-1.1c0.1,0.6,0.1,1.1,0,1.7
				c-0.1,0.6-0.2,1.1-0.4,1.5c-0.2,0.5-0.4,0.9-0.6,1.3c-0.2,0.4-0.4,0.7-0.6,0.9c-0.2,0.2-0.2,0.3-0.3,0.3
				c-0.3,0.3-0.7,0.6-1.1,0.9c-0.4,0.3-0.9,0.5-1.4,0.6c-0.5,0.2-1.1,0.2-1.6,0.3c-0.6,0-1.1,0-1.6-0.2c-0.5-0.1-1-0.4-1.5-0.7
				s-0.8-0.8-1.1-1.4c-0.3-0.6-0.6-1.3-0.6-2c-0.1-0.7-0.1-1.3,0-1.9c0.1-0.6,0.3-1.2,0.6-1.8c0.3-0.6,0.7-1.1,1.1-1.6
				c0.4-0.5,0.9-0.9,1.5-1.2c0.6-0.3,1.2-0.6,1.8-0.8c0,0,0.1,0,0.3-0.1c0.2,0,0.4-0.1,0.8-0.1c0.3,0,0.7,0,1.1,0.1s0.9,0.2,1.4,0.5
				c0.5,0.2,1,0.6,1.5,1L774.1,279.8z"/>
			<path d="M786.6,283.7l-1.9,2.5l-3.4-2.2l0.1,2.3l-3.2-0.1l-0.9-10.4c1.7-0.3,3.3-0.6,4.8-0.8c0.8-0.1,1.5-0.1,2.1,0.1
				c0.6,0.2,1,0.5,1.3,0.8c0.3,0.4,0.5,0.8,0.6,1.4c0.1,0.5,0,1.1-0.1,1.7c-0.2,0.6-0.4,1.1-0.8,1.7c-0.4,0.6-0.9,1.1-1.5,1.5
				L786.6,283.7z M780.8,278.6l0,2.1c0.3-0.1,0.6-0.2,0.8-0.4c0.2-0.1,0.4-0.3,0.6-0.5s0.3-0.3,0.3-0.5c0.1-0.1,0.1-0.3,0.1-0.3
				c0,0,0-0.1,0-0.1c0-0.1,0-0.2-0.1-0.3c0-0.1-0.1-0.2-0.2-0.3s-0.3-0.1-0.6-0.1C781.5,278.3,781.2,278.4,780.8,278.6z"/>
			<path d="M786.3,275.3l7.3-1l-0.2,3.4l-3.3,0.4l0,0.6l2.4-0.3l-0.1,2.3l-2.2,0.3l0,0.7l3.8-0.6l0.2,3.7l-7.1,0.8L786.3,275.3z"/>
			<path d="M799.5,278.1c0.3,0.1,0.6,0.2,0.9,0.4c0.3,0.1,0.6,0.3,0.8,0.5c0.2,0.2,0.5,0.5,0.6,0.8c0.2,0.3,0.3,0.7,0.3,1.1
				c0.1,0.6,0,1.2-0.2,1.7c-0.2,0.5-0.5,0.9-0.9,1.3c-0.4,0.4-0.9,0.6-1.5,0.9c-0.6,0.2-1.2,0.4-1.9,0.4c-0.3,0-0.6,0-1,0
				c-0.3,0-0.7-0.1-1-0.1c-0.3-0.1-0.6-0.1-0.9-0.2c-0.3-0.1-0.6-0.2-0.9-0.3l0.8-2.9c0.1,0,0.3,0.1,0.5,0.2
				c0.2,0.1,0.4,0.1,0.6,0.2c0.2,0.1,0.4,0.1,0.7,0.1c0.2,0,0.5,0,0.7,0c0.3,0,0.6-0.1,0.8-0.2c0.2-0.1,0.3-0.3,0.3-0.5
				c0-0.1-0.1-0.3-0.3-0.3c-0.2-0.1-0.3-0.1-0.5-0.2c-0.1,0-0.3-0.1-0.5-0.1c-0.2,0-0.5-0.1-0.7-0.2s-0.5-0.2-0.8-0.3
				c-0.3-0.1-0.5-0.3-0.7-0.5c-0.2-0.2-0.4-0.4-0.6-0.7c-0.2-0.3-0.2-0.6-0.3-1c-0.1-0.6,0-1.2,0.2-1.7c0.2-0.5,0.5-0.9,0.9-1.3
				c0.4-0.4,0.8-0.7,1.3-0.9c0.5-0.2,1.1-0.4,1.7-0.4c0.6-0.1,1.1-0.1,1.7,0c0.6,0,1.1,0.2,1.6,0.3l-0.6,3.1c-0.4-0.1-0.7-0.2-1-0.3
				c-0.3-0.1-0.6-0.1-1-0.2c-0.1,0-0.3,0-0.5,0c-0.2,0-0.4,0-0.5,0.1c-0.2,0.1-0.3,0.1-0.5,0.2c-0.1,0.1-0.2,0.2-0.2,0.4
				c0,0.1,0,0.1,0.1,0.2c0.1,0,0.2,0.1,0.2,0.1c0.1,0,0.2,0,0.3,0c0.1,0,0.2,0,0.2,0c0.3,0,0.5,0.1,0.8,0.1
				C799.1,278,799.3,278,799.5,278.1z"/>
			<path d="M807.4,277.6c0.3,0.1,0.6,0.2,0.9,0.4c0.3,0.1,0.6,0.3,0.8,0.5c0.2,0.2,0.5,0.5,0.6,0.8c0.2,0.3,0.3,0.7,0.3,1.1
				c0.1,0.6,0,1.2-0.2,1.7c-0.2,0.5-0.5,0.9-0.9,1.3c-0.4,0.4-0.9,0.6-1.5,0.9c-0.6,0.2-1.2,0.4-1.9,0.4c-0.3,0-0.6,0-1,0
				c-0.3,0-0.7-0.1-1-0.1c-0.3-0.1-0.6-0.1-0.9-0.2c-0.3-0.1-0.6-0.2-0.9-0.3l0.8-2.9c0.1,0,0.3,0.1,0.5,0.2
				c0.2,0.1,0.4,0.1,0.6,0.2c0.2,0.1,0.4,0.1,0.7,0.1c0.2,0,0.5,0,0.7,0c0.3,0,0.6-0.1,0.8-0.2c0.2-0.1,0.3-0.3,0.3-0.5
				c0-0.1-0.1-0.3-0.3-0.3c-0.2-0.1-0.3-0.1-0.5-0.2c-0.1,0-0.3-0.1-0.5-0.1c-0.2,0-0.5-0.1-0.7-0.2c-0.3-0.1-0.5-0.2-0.8-0.3
				c-0.3-0.1-0.5-0.3-0.7-0.5c-0.2-0.2-0.4-0.4-0.6-0.7c-0.2-0.3-0.2-0.6-0.3-1c-0.1-0.6,0-1.2,0.2-1.7c0.2-0.5,0.5-0.9,0.9-1.3
				c0.4-0.4,0.8-0.7,1.3-0.9c0.5-0.2,1.1-0.4,1.7-0.4c0.6-0.1,1.1-0.1,1.7,0c0.6,0,1.1,0.2,1.6,0.3l-0.6,3.1c-0.4-0.1-0.7-0.2-1-0.3
				c-0.3-0.1-0.6-0.1-1-0.2c-0.1,0-0.3,0-0.5,0c-0.2,0-0.4,0-0.5,0.1c-0.2,0.1-0.3,0.1-0.5,0.2c-0.1,0.1-0.2,0.2-0.2,0.4
				c0,0.1,0,0.1,0.1,0.2c0.1,0,0.2,0.1,0.2,0.1c0.1,0,0.2,0,0.3,0c0.1,0,0.2,0,0.2,0c0.3,0,0.5,0.1,0.8,0.1
				C806.9,277.4,807.2,277.5,807.4,277.6z"/>
		</g>
	</g>
	<path fill="#F1F2F2" d="M0,457.7c0,51.7,0,85.8,0,137.5c280.6,0,561.3,0,841.9,0c0-51.7,0-85.8,0-137.5
		C561.7,435.7,280.2,435.7,0,457.7z"/>
	<g>
		<g>
			<ellipse fill="#BCBEC0" cx="420.9" cy="489.6" rx="288.8" ry="29.9"/>
			<g>
				<g>
					<g>
						<g>
							<g>
								<polygon fill="#9B8579" points="501.3,291.3 466,491.3 443.4,491.3 478.6,291.3 								"/>
								<polygon fill="#726658" points="483.3,291.3 448,491.3 443.4,491.3 478.6,291.3 								"/>
							</g>
							<g>
								<polygon fill="#9B8579" points="479.1,291.3 514.4,491.3 537,491.3 501.8,291.3 								"/>
								<polygon fill="#726658" points="479.1,291.3 514.4,491.3 519,491.3 483.8,291.3 								"/>
							</g>
						</g>
						<g>
							<circle fill="#726658" cx="489" cy="278.3" r="16.7"/>
							<circle fill="#9B8579" cx="493.7" cy="278.3" r="16.7"/>
							<circle fill="#FFDE17" cx="493.7" cy="278.3" r="12"/>
							<path fill="#F7C41F" d="M500.9,268.7c1.5,2,2.4,4.5,2.4,7.2c0,6.6-5.4,12-12,12c-2.7,0-5.2-0.9-7.2-2.4
								c2.2,2.9,5.7,4.8,9.6,4.8c6.6,0,12-5.4,12-12C505.7,274.4,503.8,270.9,500.9,268.7z"/>
							<circle fill="#FFFFFF" cx="490.4" cy="275.1" r="1.7"/>
						</g>
					</g>
					<g>
						<g>
							<g>
								<polygon fill="#9B8579" points="351.2,291.3 316,491.3 293.3,491.3 328.6,291.3 								"/>
								<polygon fill="#726658" points="333.2,291.3 298,491.3 293.3,491.3 328.6,291.3 								"/>
							</g>
							<g>
								<polygon fill="#9B8579" points="329,291.3 364.3,491.3 387,491.3 351.7,291.3 								"/>
								<polygon fill="#726658" points="329,291.3 364.3,491.3 369,491.3 333.7,291.3 								"/>
							</g>
						</g>
						<g>
							<circle fill="#726658" cx="338.9" cy="278.3" r="16.7"/>
							<circle fill="#9B8579" cx="343.6" cy="278.3" r="16.7"/>
							<circle fill="#FFDE17" cx="343.6" cy="278.3" r="12"/>
							<path fill="#F7C41F" d="M350.8,268.7c1.5,2,2.4,4.5,2.4,7.2c0,6.6-5.4,12-12,12c-2.7,0-5.2-0.9-7.2-2.4
								c2.2,2.9,5.7,4.8,9.6,4.8c6.6,0,12-5.4,12-12C355.6,274.4,353.7,270.9,350.8,268.7z"/>
							<circle fill="#FFFFFF" cx="340.4" cy="275.1" r="1.7"/>
						</g>
					</g>
					<g>
						<g>
							<polygon fill="#F1F2F2" points="304.9,306.1 312.9,351.1 537.5,351.1 529.6,306.1 							"/>
							<polygon fill="#E6E7E8" points="311.9,345.8 312.9,351.1 537.5,351.1 536.6,345.8 							"/>
							<g>
								<polygon fill="#F89520" points="304.9,306.1 312.9,351.1 318.7,351.1 327.1,306.1 								"/>
								<polygon fill="#E0871C" points="311.2,306.1 304.9,306.1 312.9,351.1 318.7,351.1 318.9,350 								"/>
								<polygon fill="#F89520" points="355.3,306.1 346.8,351.1 374.8,351.1 383.3,306.1 								"/>
								<polygon fill="#F89520" points="411.5,306.1 403,351.1 431,351.1 439.5,306.1 								"/>
								<polygon fill="#F89520" points="467.6,306.1 459.2,351.1 487.2,351.1 495.6,306.1 								"/>
								<polygon fill="#F89520" points="523.8,306.1 515.3,351.1 537.5,351.1 529.6,306.1 								"/>
							</g>
							<g>
								<polygon fill="#E0871C" points="311.9,345.8 312.9,351.1 318.7,351.1 319.7,345.8 								"/>
								<polygon fill="#E0871C" points="347.8,345.8 346.8,351.1 374.8,351.1 375.8,345.8 								"/>
								<polygon fill="#E0871C" points="404,345.8 403,351.1 431,351.1 432,345.8 								"/>
								<polygon fill="#E0871C" points="460.2,345.8 459.2,351.1 487.2,351.1 488.2,345.8 								"/>
								<polygon fill="#E0871C" points="515.3,351.1 537.5,351.1 536.6,345.8 516.3,345.8 								"/>
							</g>
						</g>
						<g>
							<polygon fill="#F1F2F2" points="316,368.8 323.9,413.8 548.6,413.8 540.7,368.8 							"/>
							<polygon fill="#E6E7E8" points="323,408.5 323.9,413.8 548.6,413.8 547.7,408.5 							"/>
							<g>
								<polygon fill="#F89520" points="316,368.8 323.9,413.8 329.7,413.8 338.2,368.8 								"/>
								<polygon fill="#E0871C" points="322.1,368.8 316,368.8 323.9,413.8 329.7,413.8 329.9,412.9 								"/>
								<polygon fill="#F89520" points="366.3,368.8 357.9,413.8 385.9,413.8 394.3,368.8 								"/>
								<polygon fill="#F89520" points="422.5,368.8 414.1,413.8 442.1,413.8 450.5,368.8 								"/>
								<polygon fill="#F89520" points="478.7,368.8 470.2,413.8 498.2,413.8 506.7,368.8 								"/>
								<polygon fill="#F89520" points="534.8,368.8 526.4,413.8 548.6,413.8 540.7,368.8 								"/>
							</g>
							<g>
								<polygon fill="#E0871C" points="323,408.5 323.9,413.8 329.7,413.8 330.7,408.5 								"/>
								<polygon fill="#E0871C" points="358.9,408.5 357.9,413.8 385.9,413.8 386.9,408.5 								"/>
								<polygon fill="#E0871C" points="415.1,408.5 414.1,413.8 442.1,413.8 443.1,408.5 								"/>
								<polygon fill="#E0871C" points="471.2,408.5 470.2,413.8 498.2,413.8 499.2,408.5 								"/>
								<polygon fill="#E0871C" points="526.4,413.8 548.6,413.8 547.7,408.5 527.4,408.5 								"/>
							</g>
						</g>
					</g>
				</g>
				<g>
					<path fill="#E0871C" d="M692.9,481.8c0-8.1-27.5-14.6-61.4-14.6c-33.9,0-61.4,6.6-61.4,14.6c0,0.8,0,3.7,0,4.4
						c0,8.1,27.5,14.6,61.4,14.6c33.9,0,61.4-6.6,61.4-14.6C692.9,485.5,692.9,482.6,692.9,481.8z"/>
					<ellipse fill="#F89520" cx="631.4" cy="481.8" rx="61.4" ry="14.6"/>
					<path fill="#F89520" d="M642.1,364.8c0-1.4-4.8-2.5-10.7-2.5s-10.6,1.1-10.6,2.5l-35.5,117.4h46.2h46.1L642.1,364.8z"/>
					<g>
						<path fill="#FFFFFF" d="M613.3,389.4l-4.7,15.5c7.7,1.4,16.2,1.7,22.8,1.7c6.6,0,15.1-0.4,22.8-1.7l-4.7-15.5
							c-4.8,0.7-10.9,1.3-18.1,1.3C624.2,390.7,618.1,390.1,613.3,389.4z"/>
						<path fill="#FFFFFF" d="M631.4,441.2c11.9,0,23.3-0.9,33-2.5l-4.7-15.4c-7.5,1.1-17,1.9-28.3,1.9c-11.4,0-20.9-0.8-28.3-1.9
							l-4.7,15.4C608.1,440.3,619.5,441.2,631.4,441.2z"/>
						<path fill="#FFFFFF" d="M631.4,475.5c15.6,0,30.6-1.2,43.1-3.3l-4.7-15.4c-10.1,1.6-23,2.8-38.5,2.8
							c-15.5,0-28.4-1.1-38.5-2.8l-4.7,15.4C600.9,474.3,615.8,475.5,631.4,475.5z"/>
					</g>
				</g>
				<g>
					<path fill="#E0871C" d="M271.9,481.8c0-8.1-27.5-14.6-61.4-14.6s-61.4,6.6-61.4,14.6c0,0.8,0,3.7,0,4.4
						c0,8.1,27.5,14.6,61.4,14.6s61.4-6.6,61.4-14.6C271.9,485.5,271.9,482.6,271.9,481.8z"/>
					<ellipse fill="#F89520" cx="210.5" cy="481.8" rx="61.4" ry="14.6"/>
					<path fill="#F89520" d="M221.1,364.8c0-1.4-4.8-2.5-10.7-2.5c-5.9,0-10.6,1.1-10.6,2.5l-35.5,117.4h46.1h46.2L221.1,364.8z"/>
					<g>
						<path fill="#FFFFFF" d="M192.4,389.4l-4.7,15.5c7.7,1.4,16.2,1.7,22.8,1.7c6.6,0,15.1-0.4,22.8-1.7l-4.7-15.5
							c-4.8,0.7-10.9,1.3-18.1,1.3C203.2,390.7,197.1,390.1,192.4,389.4z"/>
						<path fill="#FFFFFF" d="M210.5,441.2c11.9,0,23.3-0.9,33-2.5l-4.7-15.4c-7.5,1.1-17,1.9-28.3,1.9c-11.4,0-20.9-0.8-28.3-1.9
							l-4.7,15.4C187.1,440.3,198.5,441.2,210.5,441.2z"/>
						<path fill="#FFFFFF" d="M210.5,475.5c15.6,0,30.6-1.2,43.1-3.3l-4.7-15.4c-10.1,1.6-23,2.8-38.5,2.8
							c-15.5,0-28.4-1.1-38.5-2.8l-4.7,15.4C179.9,474.3,194.8,475.5,210.5,475.5z"/>
					</g>
				</g>
			</g>
		</g>
		<g>
			<g>
				<path fill="#F89520" d="M263.8,117.9c2,0.9,4.1,2,6.3,3.2c2.1,1.2,4.1,2.6,5.8,4.3c1.7,1.7,3.2,3.8,4.3,6.2
					c1.1,2.4,1.8,5.2,1.9,8.5c0.2,4.7-0.6,8.8-2.3,12.4c-1.7,3.6-4.1,6.6-7.2,9.1c-3.1,2.5-6.9,4.4-11.2,5.7c-4.3,1.3-9,2.1-14,2.3
					c-2.3,0.1-4.7,0-7.1-0.3c-2.4-0.3-4.8-0.7-7.2-1.3c-2.4-0.6-4.7-1.3-6.9-2.1c-2.2-0.8-4.3-1.7-6.3-2.6l7.5-21.1
					c1,0.4,2.2,0.9,3.6,1.5c1.4,0.6,2.9,1.2,4.4,1.7c1.6,0.5,3.2,1,4.9,1.4c1.7,0.4,3.4,0.6,5,0.5c2.4-0.1,4.5-0.6,6.2-1.3
					c1.7-0.7,2.5-1.9,2.4-3.6c-0.1-1.1-0.6-2-1.7-2.6c-1.1-0.6-2.4-1.2-3.9-1.8c-1-0.3-2.3-0.6-3.9-1.1c-1.6-0.5-3.3-1.1-5.2-1.9
					c-1.8-0.8-3.7-1.7-5.6-2.9c-1.9-1.1-3.6-2.5-5.1-4c-1.5-1.6-2.8-3.4-3.8-5.5c-1-2.1-1.6-4.5-1.6-7.2c-0.1-4.6,0.7-8.7,2.4-12.3
					c1.7-3.6,4-6.6,7-9.2c3-2.5,6.4-4.5,10.4-5.8c3.9-1.3,8.2-2.1,12.6-2.3c4.1-0.2,8.3,0,12.3,0.6c4.1,0.6,7.9,1.7,11.4,3.1
					l-5.8,22.8c-2.6-1.1-5-2.1-7.2-2.8c-2.2-0.8-4.7-1.3-7.6-1.7c-0.9-0.1-2-0.2-3.5-0.2c-1.4,0-2.7,0.1-4.1,0.4
					c-1.3,0.3-2.5,0.8-3.5,1.4c-1,0.7-1.5,1.6-1.6,2.8c0,0.5,0.2,0.9,0.7,1.2c0.5,0.3,1.1,0.5,1.8,0.7c0.7,0.2,1.4,0.3,2.1,0.4
					c0.7,0.1,1.3,0.2,1.8,0.2c1.9,0.4,3.9,0.9,6.1,1.4C260.3,116.6,262.1,117.2,263.8,117.9z"/>
				<path fill="#F89520" d="M343.5,159.3c-2.4,2.4-5.2,4.4-8.6,6.2c-3.4,1.8-7,3.1-10.9,4c-3.9,0.9-7.9,1.3-12,1.3
					c-4.1-0.1-8.1-0.8-11.8-2.1c-3.8-1.3-7.3-3.4-10.4-6.2c-3.2-2.8-5.7-6.3-7.7-10.8c-2.2-4.9-3.6-9.8-4-14.7
					c-0.4-4.9-0.1-9.5,0.9-14.1c1.1-4.5,2.8-8.8,5.1-12.8s5.2-7.6,8.6-10.9c3.4-3.3,7.1-6.1,11.3-8.4c4.2-2.4,8.6-4.2,13.4-5.4
					c4.5-1.1,8.7-1.5,12.6-1c3.9,0.4,7.4,1.4,10.6,2.8c3.2,1.4,5.8,3.2,8,5.3c2.2,2.1,3.9,4.2,5,6.3c2,3.9,3.6,8.4,4.6,13.4
					c1,5,1.2,10.1,0.7,15.4c-0.6,5.3-2.1,10.7-4.5,16.1C351.9,149.2,348.3,154.4,343.5,159.3z M330.4,117.3c-1-2.1-2.4-3.6-4.2-4.5
					c-1.8-0.9-3.8-1.3-5.9-1.2c-2.1,0.1-4.2,0.7-6.4,1.8c-2.2,1.1-4.1,2.6-5.9,4.5c-1.8,1.9-3.2,4.3-4.4,7.1
					c-1.2,2.8-1.7,5.8-1.7,9.2c-0.1,3.2,0.4,5.7,1.3,7.7c1,2,2.2,3.4,3.6,4.4c1.5,1,3.2,1.5,5.1,1.6c1.9,0.1,3.8-0.2,5.7-0.8
					c1.9-0.7,3.6-1.6,5.3-2.9c1.6-1.3,3-2.8,4.1-4.5c1.6-2.6,2.8-4.9,3.6-7.2c0.8-2.2,1.2-4.2,1.4-6.1c0.2-1.8,0.1-3.5-0.2-5
					C331.4,119.8,331,118.5,330.4,117.3z"/>
				<path fill="#F89520" d="M424.1,153.3l-15.3,17.3l-24-17.7l-0.3,16.9l-23.9-2.5l-1.6-77c12.5-1.4,24.5-2.7,36.1-3.8
					c6.2-0.7,11.3-0.2,15.4,1.4c4.1,1.6,7.2,3.9,9.4,6.9c2.1,3,3.4,6.5,3.6,10.5c0.3,4-0.3,8.1-1.7,12.2c-1.4,4.2-3.7,8.2-6.9,12.2
					c-3.1,3.9-7,7.4-11.6,10.3L424.1,153.3z M383.3,112.4l-1,15.8c2.4-0.5,4.4-1.3,6.2-2.3c1.7-1,3.2-2,4.4-3.2
					c1.2-1.1,2.1-2.2,2.7-3.2c0.6-1,1-1.8,1.1-2.4c0-0.1,0-0.4,0.1-1.1c0.1-0.7,0-1.4-0.2-2.4c-0.2-0.9-0.8-1.7-1.7-2.3
					c-0.9-0.6-2.3-0.9-4.1-0.9C389,110.5,386.5,111.1,383.3,112.4z"/>
				<path fill="#F89520" d="M490.1,153.3l-15.3,17.3l-24-17.7l-0.3,16.9l-23.9-2.5l-1.6-77c12.5-1.4,24.5-2.7,36.1-3.8
					c6.2-0.7,11.3-0.2,15.4,1.4c4.1,1.6,7.2,3.9,9.4,6.9c2.1,3,3.4,6.5,3.6,10.5c0.3,4-0.3,8.1-1.7,12.2c-1.4,4.2-3.7,8.2-6.9,12.2
					c-3.1,3.9-7,7.4-11.6,10.3L490.1,153.3z M449.4,112.4l-1,15.8c2.4-0.5,4.4-1.3,6.2-2.3c1.7-1,3.2-2,4.4-3.2
					c1.2-1.1,2.1-2.2,2.7-3.2c0.6-1,1-1.8,1.1-2.4c0-0.1,0-0.4,0.1-1.1c0.1-0.7,0-1.4-0.2-2.4c-0.2-0.9-0.8-1.7-1.7-2.3
					c-0.9-0.6-2.3-0.9-4.1-0.9C455.1,110.5,452.6,111.1,449.4,112.4z"/>
				<path fill="#F89520" d="M503.3,85.4l17.5,27.4l18.9-27.4l24.2,16.6l-30.1,38.9l-0.3,28.4l-26.5-3.6v-29l-24.9-34.7L503.3,85.4z"
					/>
				<path fill="#F89520" d="M598.5,170.5c-2-0.7-3.9-1.7-5.5-2.8s-2.9-2.4-3.9-3.8c-1-1.4-1.7-2.8-2.1-4.3c-0.4-1.5-0.3-3,0.2-4.3
					c0.5-1.4,1.3-2.6,2.5-3.6c1.2-1,2.6-1.7,4.3-2.2c1.7-0.5,3.5-0.6,5.5-0.5c2,0.1,4,0.5,6,1.1c2,0.7,3.9,1.7,5.5,2.8
					c1.6,1.2,2.9,2.4,3.9,3.8c1,1.4,1.7,2.8,2,4.3c0.3,1.5,0.3,3-0.2,4.3c-0.5,1.4-1.3,2.5-2.5,3.5c-1.2,1-2.6,1.7-4.3,2.2
					c-1.7,0.5-3.5,0.7-5.5,0.6C602.6,171.6,600.6,171.2,598.5,170.5z M617.5,147.4c-1.7-1.2-3.7-2.2-5.9-2.9
					c-2.2-0.8-4.6-1.2-7.1-1.4c-2.4-0.2-4.8-0.1-7,0.2c-2.2,0.4-4.2,1-6.1,1.8l5.2-68.2l29.2-1.2L617.5,147.4z"/>
			</g>
			<g>
				<path d="M247.7,193.6l6.3-2.7l2.5,7.6l4.2-6.4l3.5,6.1l2.8-8.3l5.3,3.8l-5.7,17l-5.8-5.9l-5.9,7.5L247.7,193.6z"/>
				<path d="M272.2,192.5l12.8-0.9l-0.7,5.8l-5.8,0.3l0,1.1l4.2-0.3l-0.5,4l-3.9,0.3l0,1.3l6.6-0.6l-0.1,6.4l-12.4,0.7L272.2,192.5z
					"/>
				<path d="M286.9,193.4h2.8v1.6c0,1-0.1,1.8-0.4,2.6c-0.2,0.7-0.7,1.4-1.2,2.2l-1.1-0.9c0.3-0.4,0.5-0.8,0.6-1.1
					c0.1-0.3,0.3-0.7,0.4-1.2h-1.1V193.4z"/>
				<path d="M307.6,207.1l-3.6,4l-5.6-4.1l-0.1,4l-5.6-0.6l-0.4-18.1c2.9-0.3,5.7-0.6,8.5-0.9c1.4-0.2,2.7,0,3.6,0.3
					c1,0.4,1.7,0.9,2.2,1.6c0.5,0.7,0.8,1.5,0.9,2.4c0.1,0.9-0.1,1.9-0.4,2.9c-0.3,1-0.9,1.9-1.6,2.9c-0.7,0.9-1.6,1.7-2.7,2.4
					L307.6,207.1z M298,197.5l-0.2,3.7c0.6-0.1,1-0.3,1.4-0.5c0.4-0.2,0.8-0.5,1-0.7c0.3-0.3,0.5-0.5,0.6-0.8
					c0.1-0.2,0.2-0.4,0.3-0.6c0,0,0-0.1,0-0.3c0-0.2,0-0.3-0.1-0.6c-0.1-0.2-0.2-0.4-0.4-0.5c-0.2-0.1-0.5-0.2-1-0.2
					C299.4,197.1,298.8,197.2,298,197.5z"/>
				<path d="M307.9,192.5l12.8-0.9l-0.7,5.8l-5.8,0.3l0,1.1l4.2-0.3l-0.5,4l-3.9,0.3l0,1.3l6.6-0.6l-0.1,6.4l-12.4,0.7L307.9,192.5z
					"/>
				<path d="M342,192.2c0.1,2.4,0.2,4.3,0.2,5.7c0,1.4,0.1,2.5,0.1,3.3c0,0.8,0,1.3,0,1.5v0.4c0,0.9-0.1,1.8-0.2,2.7
					c-0.2,0.9-0.4,1.6-0.8,2.3c-0.4,0.7-1,1.3-1.7,1.8c-0.7,0.5-1.6,0.9-2.6,1.1c-1.6,0.3-3,0.3-4.1,0.1c-1.2-0.2-2.1-0.7-2.9-1.4
					c-0.7-0.7-1.3-1.5-1.6-2.6c-0.3-1-0.5-2.2-0.5-3.4c0,0,0-0.1,0-0.2c0-0.2,0-0.5,0-1c0-0.5,0-1.2,0-2.1c0-0.9,0-2.1,0.1-3.6
					c0-1.5,0.1-3.3,0.2-5.5l6.6,1.2l-0.6,10.9c-0.1,0.4-0.1,0.8,0,1.1c0.1,0.3,0.1,0.5,0.2,0.7c0.1,0.1,0.1,0.2,0.1,0.2
					c0.2,0.2,0.3,0.3,0.5,0.3c0.2,0,0.4-0.2,0.7-0.6c0,0,0.1-0.1,0.1-0.3c0.1-0.2,0.2-0.5,0.2-0.9c0.1-0.4,0.1-1,0.1-1.6l-0.5-8.9
					L342,192.2z"/>
				<path d="M343.7,191.6l8.8,7.3l0.2-7.6l6.9,0.5l-1.1,17.6l-8.9-4.4l0.3,5.5l-6.6,0.4L343.7,191.6z"/>
				<path d="M361.1,192.4c2.8-0.5,5.5-1,8.2-1.3c1.3-0.2,2.4-0.2,3.4,0.2c1,0.3,1.8,0.8,2.5,1.4c0.7,0.7,1.2,1.5,1.6,2.4
					c0.4,1,0.6,2,0.6,3.1c0,1.1-0.1,2.2-0.4,3.4c-0.3,1.2-0.7,2.3-1.4,3.4c-0.6,1.1-1.5,2.1-2.4,3c-1,0.9-2.2,1.7-3.5,2.3
					c-0.5,0.2-1.1,0.3-1.8,0.4c-0.6,0.1-1.5,0.1-2.6,0.1c-1.1,0-2.4-0.1-4-0.3L361.1,192.4z M367.1,205.2c0.9-0.2,1.6-0.5,2.1-0.9
					c0.5-0.4,1-0.8,1.2-1.3c0.3-0.4,0.5-0.9,0.6-1.3c0.1-0.4,0.2-0.8,0.2-1c0-0.3,0-0.4,0-0.4c0,0,0-0.2-0.1-0.5
					c0-0.3-0.1-0.6-0.3-1c-0.2-0.4-0.4-0.7-0.6-0.9c-0.3-0.2-0.7-0.3-1.1-0.3c-0.5,0-1.1,0.3-1.8,0.9L367.1,205.2z"/>
				<path d="M377.6,192.5l12.8-0.9l-0.7,5.8l-5.8,0.3l0,1.1l4.2-0.3l-0.5,4l-3.9,0.3l0,1.3l6.6-0.6l-0.1,6.4l-12.4,0.7L377.6,192.5z
					"/>
				<path d="M406.5,207.1l-3.6,4l-5.6-4.1l-0.1,4l-5.6-0.6l-0.4-18.1c2.9-0.3,5.7-0.6,8.5-0.9c1.4-0.2,2.7,0,3.6,0.3
					c1,0.4,1.7,0.9,2.2,1.6c0.5,0.7,0.8,1.5,0.9,2.4c0.1,0.9-0.1,1.9-0.4,2.9c-0.3,1-0.9,1.9-1.6,2.9c-0.7,0.9-1.6,1.7-2.7,2.4
					L406.5,207.1z M396.9,197.5l-0.2,3.7c0.6-0.1,1-0.3,1.4-0.5c0.4-0.2,0.8-0.5,1-0.7c0.3-0.3,0.5-0.5,0.6-0.8
					c0.1-0.2,0.2-0.4,0.3-0.6c0,0,0-0.1,0-0.3c0-0.2,0-0.3-0.1-0.6c-0.1-0.2-0.2-0.4-0.4-0.5c-0.2-0.1-0.5-0.2-1-0.2
					C398.3,197.1,397.7,197.2,396.9,197.5z"/>
				<path d="M429.5,194.9l-4,5c-0.8-0.9-1.6-1.4-2.2-1.7c-0.6-0.2-1.2-0.3-1.6-0.2c-0.5,0.1-0.8,0.4-1.1,0.8
					c-0.3,0.4-0.6,0.8-0.7,1.2c-0.2,0.4-0.4,1-0.5,1.7c0,0,0,0.2,0.1,0.6c0.1,0.4,0.2,0.8,0.5,1.2c0.3,0.5,0.6,0.8,1.1,1
					c0.5,0.2,1.1,0.2,1.9-0.1c0.8-0.3,1.8-1,3-2.1l4.5,4.8c-0.2,0.4-0.6,0.9-1.2,1.4c-0.6,0.5-1.2,0.9-2,1.3c-0.8,0.4-1.6,0.7-2.6,1
					c-0.9,0.3-1.9,0.4-2.9,0.4c-1,0-1.9-0.1-2.9-0.3c-0.9-0.2-1.8-0.7-2.6-1.3c-1.2-0.9-2-1.9-2.6-3c-0.6-1.1-0.9-2.2-1-3.3
					c-0.1-1.1,0-2.3,0.3-3.4c0.3-1.1,0.7-2.2,1.2-3.2c0.5-1,1.1-1.9,1.8-2.7c0.7-0.8,1.4-1.4,2.1-1.9c0.6-0.3,1.2-0.6,1.7-0.8
					s1.2-0.3,1.9-0.3c0.7-0.1,1.5,0,2.4,0.2c0.9,0.2,1.7,0.6,2.7,1.2C427.7,192.9,428.6,193.7,429.5,194.9z"/>
				<path d="M445,208.5c-0.6,0.6-1.2,1-2,1.5c-0.8,0.4-1.6,0.7-2.6,0.9c-0.9,0.2-1.8,0.3-2.8,0.3c-1,0-1.9-0.2-2.8-0.5
					c-0.9-0.3-1.7-0.8-2.4-1.4c-0.7-0.6-1.3-1.5-1.8-2.5c-0.5-1.2-0.8-2.3-0.9-3.4c-0.1-1.1,0-2.2,0.2-3.3c0.2-1.1,0.6-2.1,1.2-3
					c0.6-0.9,1.2-1.8,2-2.6c0.8-0.8,1.7-1.4,2.6-2c1-0.6,2-1,3.1-1.3c1-0.3,2-0.3,2.9-0.2c0.9,0.1,1.7,0.3,2.5,0.7
					c0.7,0.3,1.4,0.8,1.9,1.2c0.5,0.5,0.9,1,1.2,1.5c0.5,0.9,0.8,2,1.1,3.1c0.2,1.2,0.3,2.4,0.2,3.6c-0.1,1.2-0.5,2.5-1.1,3.8
					C446.9,206.2,446.1,207.4,445,208.5z M441.9,198.7c-0.2-0.5-0.6-0.8-1-1.1c-0.4-0.2-0.9-0.3-1.4-0.3c-0.5,0-1,0.2-1.5,0.4
					s-1,0.6-1.4,1.1c-0.4,0.5-0.8,1-1,1.7c-0.3,0.6-0.4,1.4-0.4,2.1c0,0.7,0.1,1.3,0.3,1.8c0.2,0.5,0.5,0.8,0.9,1
					c0.3,0.2,0.7,0.3,1.2,0.4c0.4,0,0.9,0,1.3-0.2c0.4-0.2,0.9-0.4,1.2-0.7c0.4-0.3,0.7-0.7,1-1.1c0.4-0.6,0.7-1.2,0.8-1.7
					c0.2-0.5,0.3-1,0.3-1.4c0-0.4,0-0.8-0.1-1.2C442.1,199.3,442,199,441.9,198.7z"/>
				<path d="M449,191.6l8.8,7.3l0.2-7.6l6.9,0.5l-1.1,17.6L455,205l0.3,5.5l-6.6,0.4L449,191.6z"/>
				<path d="M475.2,198.8c0.5,0.2,1,0.5,1.5,0.7c0.5,0.3,1,0.6,1.4,1c0.4,0.4,0.7,0.9,1,1.4c0.3,0.6,0.4,1.2,0.5,2
					c0,1.1-0.1,2.1-0.5,2.9c-0.4,0.8-1,1.5-1.7,2.1c-0.7,0.6-1.6,1-2.6,1.3c-1,0.3-2.1,0.5-3.3,0.5c-0.5,0-1.1,0-1.7-0.1
					c-0.6-0.1-1.1-0.2-1.7-0.3c-0.6-0.1-1.1-0.3-1.6-0.5c-0.5-0.2-1-0.4-1.5-0.6l1.8-4.9c0.2,0.1,0.5,0.2,0.8,0.4
					c0.3,0.1,0.7,0.3,1,0.4c0.4,0.1,0.8,0.2,1.2,0.3c0.4,0.1,0.8,0.1,1.2,0.1c0.6,0,1.1-0.1,1.4-0.3c0.4-0.2,0.6-0.5,0.6-0.9
					c0-0.3-0.2-0.5-0.4-0.6c-0.3-0.1-0.6-0.3-0.9-0.4c-0.2-0.1-0.5-0.1-0.9-0.3c-0.4-0.1-0.8-0.3-1.2-0.4c-0.4-0.2-0.9-0.4-1.3-0.7
					c-0.4-0.3-0.8-0.6-1.2-0.9c-0.4-0.4-0.7-0.8-0.9-1.3c-0.2-0.5-0.4-1-0.4-1.7c0-1.1,0.2-2,0.6-2.9c0.4-0.8,0.9-1.6,1.6-2.1
					c0.7-0.6,1.5-1,2.4-1.4c0.9-0.3,1.9-0.5,3-0.5c1,0,1.9,0,2.9,0.2c1,0.1,1.8,0.4,2.7,0.7l-1.4,5.3c-0.6-0.3-1.2-0.5-1.7-0.7
					c-0.5-0.2-1.1-0.3-1.8-0.4c-0.2,0-0.5,0-0.8,0c-0.3,0-0.6,0-1,0.1c-0.3,0.1-0.6,0.2-0.8,0.3c-0.2,0.2-0.4,0.4-0.4,0.6
					c0,0.1,0.1,0.2,0.2,0.3s0.3,0.1,0.4,0.2c0.2,0,0.3,0.1,0.5,0.1c0.2,0,0.3,0,0.4,0.1c0.4,0.1,0.9,0.2,1.4,0.3
					C474.4,198.5,474.8,198.7,475.2,198.8z"/>
				<path d="M491.1,196.7l-2.8,0.3v13l-6.6,0.8l0.3-13.2l-3.1,0.3l0.2-5.7l12.5-1.1L491.1,196.7z"/>
				<path d="M507.2,207.1l-3.6,4L498,207l-0.1,4l-5.6-0.6l-0.4-18.1c2.9-0.3,5.7-0.6,8.5-0.9c1.4-0.2,2.7,0,3.6,0.3
					c1,0.4,1.7,0.9,2.2,1.6c0.5,0.7,0.8,1.5,0.9,2.4c0.1,0.9-0.1,1.9-0.4,2.9c-0.3,1-0.9,1.9-1.6,2.9c-0.7,0.9-1.6,1.7-2.7,2.4
					L507.2,207.1z M497.6,197.5l-0.2,3.7c0.6-0.1,1-0.3,1.4-0.5c0.4-0.2,0.8-0.5,1-0.7c0.3-0.3,0.5-0.5,0.6-0.8
					c0.1-0.2,0.2-0.4,0.3-0.6c0,0,0-0.1,0-0.3c0-0.2,0-0.3-0.1-0.6c-0.1-0.2-0.2-0.4-0.4-0.5c-0.2-0.1-0.5-0.2-1-0.2
					C498.9,197.1,498.4,197.2,497.6,197.5z"/>
				<path d="M520.9,192.2c0.1,2.4,0.2,4.3,0.2,5.7c0,1.4,0.1,2.5,0.1,3.3c0,0.8,0,1.3,0,1.5v0.4c0,0.9-0.1,1.8-0.2,2.7
					c-0.2,0.9-0.4,1.6-0.8,2.3c-0.4,0.7-1,1.3-1.7,1.8c-0.7,0.5-1.6,0.9-2.6,1.1c-1.6,0.3-3,0.3-4.1,0.1c-1.2-0.2-2.1-0.7-2.9-1.4
					c-0.7-0.7-1.3-1.5-1.6-2.6c-0.3-1-0.5-2.2-0.5-3.4c0,0,0-0.1,0-0.2c0-0.2,0-0.5,0-1c0-0.5,0-1.2,0-2.1c0-0.9,0-2.1,0.1-3.6
					c0-1.5,0.1-3.3,0.2-5.5l6.6,1.2l-0.6,10.9c-0.1,0.4-0.1,0.8,0,1.1c0.1,0.3,0.1,0.5,0.2,0.7c0.1,0.1,0.1,0.2,0.1,0.2
					c0.2,0.2,0.3,0.3,0.5,0.3c0.2,0,0.4-0.2,0.7-0.6c0,0,0.1-0.1,0.1-0.3c0.1-0.2,0.2-0.5,0.2-0.9c0.1-0.4,0.1-1,0.1-1.6l-0.5-8.9
					L520.9,192.2z"/>
				<path d="M538.1,194.9l-4,5c-0.8-0.9-1.6-1.4-2.2-1.7c-0.6-0.2-1.2-0.3-1.6-0.2c-0.5,0.1-0.8,0.4-1.1,0.8
					c-0.3,0.4-0.6,0.8-0.7,1.2c-0.2,0.4-0.4,1-0.5,1.7c0,0,0,0.2,0.1,0.6c0.1,0.4,0.2,0.8,0.5,1.2c0.3,0.5,0.6,0.8,1.1,1
					c0.5,0.2,1.1,0.2,1.9-0.1c0.8-0.3,1.8-1,3-2.1l4.5,4.8c-0.2,0.4-0.6,0.9-1.2,1.4c-0.6,0.5-1.2,0.9-2,1.3c-0.8,0.4-1.6,0.7-2.6,1
					c-0.9,0.3-1.9,0.4-2.9,0.4c-1,0-1.9-0.1-2.9-0.3c-0.9-0.2-1.8-0.7-2.6-1.3c-1.2-0.9-2-1.9-2.6-3c-0.6-1.1-0.9-2.2-1-3.3
					c-0.1-1.1,0-2.3,0.3-3.4c0.3-1.1,0.7-2.2,1.2-3.2c0.5-1,1.1-1.9,1.8-2.7c0.7-0.8,1.4-1.4,2.1-1.9c0.6-0.3,1.2-0.6,1.7-0.8
					c0.5-0.2,1.2-0.3,1.9-0.3c0.7-0.1,1.5,0,2.4,0.2c0.9,0.2,1.7,0.6,2.7,1.2C536.3,192.9,537.2,193.7,538.1,194.9z"/>
				<path d="M550.8,196.7L548,197v13l-6.6,0.8l0.3-13.2l-3.1,0.3l0.2-5.7l12.5-1.1L550.8,196.7z"/>
				<path d="M558.8,191.4l-0.9,18.7l-6.1,0.7l0.2-18.6L558.8,191.4z"/>
				<path d="M574.2,208.5c-0.6,0.6-1.2,1-2,1.5c-0.8,0.4-1.6,0.7-2.6,0.9c-0.9,0.2-1.8,0.3-2.8,0.3c-1,0-1.9-0.2-2.8-0.5
					c-0.9-0.3-1.7-0.8-2.4-1.4c-0.7-0.6-1.3-1.5-1.8-2.5c-0.5-1.2-0.8-2.3-0.9-3.4c-0.1-1.1,0-2.2,0.2-3.3c0.2-1.1,0.6-2.1,1.2-3
					c0.6-0.9,1.2-1.8,2-2.6c0.8-0.8,1.7-1.4,2.6-2s2-1,3.1-1.3c1-0.3,2-0.3,2.9-0.2c0.9,0.1,1.7,0.3,2.5,0.7
					c0.7,0.3,1.4,0.8,1.9,1.2c0.5,0.5,0.9,1,1.2,1.5c0.5,0.9,0.8,2,1.1,3.1c0.2,1.2,0.3,2.4,0.2,3.6c-0.1,1.2-0.5,2.5-1.1,3.8
					C576.2,206.2,575.3,207.4,574.2,208.5z M571.1,198.7c-0.2-0.5-0.6-0.8-1-1.1c-0.4-0.2-0.9-0.3-1.4-0.3c-0.5,0-1,0.2-1.5,0.4
					c-0.5,0.3-1,0.6-1.4,1.1c-0.4,0.5-0.8,1-1,1.7c-0.3,0.6-0.4,1.4-0.4,2.1c0,0.7,0.1,1.3,0.3,1.8c0.2,0.5,0.5,0.8,0.9,1
					c0.3,0.2,0.7,0.3,1.2,0.4c0.4,0,0.9,0,1.3-0.2c0.4-0.2,0.9-0.4,1.2-0.7s0.7-0.7,1-1.1c0.4-0.6,0.7-1.2,0.8-1.7
					c0.2-0.5,0.3-1,0.3-1.4c0-0.4,0-0.8-0.1-1.2C571.4,199.3,571.3,199,571.1,198.7z"/>
				<path d="M578.3,191.6l8.8,7.3l0.2-7.6l6.9,0.5l-1.1,17.6l-8.9-4.4l0.3,5.5l-6.6,0.4L578.3,191.6z"/>
			</g>
		</g>
	</g>
</g>
</svg>
